<svg id="Capa_1" enable-background="new 0 0 511.557 511.557" height="512" viewBox="0 0 511.557 511.557" width="512" xmlns="http://www.w3.org/2000/svg"><g><g><g><path d="m339.178 58.954v342.199h-126.025v-367.926h125.43z" fill="#f9f7f8"/></g><path d="m232.909 277.381h106.268v-1.763c-3.078-7.36-6.642-14.527-10.681-21.446-15.75-26.979-38.3-49.632-65.2-65.501-.397-.234-.634-.617-.634-1.024v-18.163c10.044-7.417 16.562-19.335 16.562-32.779v-24.543c0-5.266-1.006-10.299-2.835-14.921-2.525-6.379 2.213-13.287 9.073-13.287h53.715v-25l-.594-25.727h-125.43v38.209 12.519 93.478h19.757v99.948z" fill="#efedef"/><path d="m356.696 327.376-47.896-159.295v-142.272h-70.471v106.104l-85.007 195.463z" fill="#fec165"/><path d="m339.178 277.381v-1.763c-3.078-7.36-6.642-14.527-10.681-21.446-15.75-26.979-38.3-49.632-65.2-65.501-.397-.234-.634-.617-.634-1.024v-8.101c0-5.622 1.981-11.122 5.791-15.256 6.686-7.254 10.77-16.941 10.77-27.584v-24.543c0-5.266-1.006-10.299-2.835-14.921-2.525-6.379 2.213-13.287 9.073-13.287h23.338v-50.728h-70.471v98.686l-19.796 45.519h14.377v99.95h106.268z" fill="#fdb441"/><path d="m232.982 491.194c7.269 7.799 17.644 12.862 29.693 12.862h195.478c30.069 0 49.756-31.483 36.592-58.517l-81.141-166.644v-100.737h-106.38v89.178l-92.735 198.98z" fill="#efedef"/><path d="m330.398 178.158h-23.174v24.988 21.73 36.035 6.425l-92.735 198.98 18.493 24.878c7.269 7.799 17.644 12.862 29.693 12.862h.009c54.182-31.767 90.649-90.62 90.649-157.839 0-30.053-7.416-59.619-21.468-85.964-.948-1.777-1.467-3.75-1.467-5.764v-19.513c0-17.573 14.245-31.818 31.818-31.818h50.906c.187-.187.294-.294.482-.482v-24.518z" fill="#e5e1e5"/><g id="XMLID_1103_"><g><path d="m467.772 458.678c2.26 4.63.63 8.47-.55 10.35-1.17 1.88-3.91 5.03-9.07 5.03h-183.71c-5.7 0-9.66-5.66-7.72-11.02 13.22-36.54 57.83-151.21 57.83-151.21l12.67-26.02v-107.65-29.89h45.59l.79 29.89v107.65z" fill="#f47c7c"/></g></g><g><path d="m337.222 215.298c5.827-7.39 14.852-12.14 24.993-12.14h21.387v-25h-46.38z" fill="#ee6161"/></g><path d="m349.476 383.607c2.521-12.073 3.857-24.577 3.857-37.39 0-25.975-5.538-51.589-16.11-75.074v14.664l-12.67 26.02s-13.445 34.56-27.76 71.78z" fill="#ee6161"/><g><path d="m467.772 458.678c2.26 4.63.63 8.47-.55 10.35-1.17 1.88-3.91 5.03-9.07 5.03h-183.71c-5.7 0-9.66-5.66-7.72-11.02 6.76-18.69 21.74-57.82 34.75-91.59h123.83z" fill="#ee6161"/></g><path d="m301.075 474.062c26.751-27.311 45.003-62.949 50.507-102.615h-50.108c-2.132 5.531-4.316 11.205-6.508 16.91-6.121 15.932-12.303 32.098-17.574 46.036-.068.179-.136.36-.203.538-.213.564-.423 1.12-.633 1.676-.173.459-.348.92-.519 1.374-.125.332-.248.658-.372.987-.23.61-.46 1.221-.686 1.821-.056.149-.111.295-.167.443-3.258 8.656-6.048 16.163-8.089 21.804-.121.335-.219.671-.296 1.007-.762 3.359.68 6.689 3.309 8.537 1.314.924 2.926 1.477 4.707 1.477z" fill="#e53950"/><circle cx="405.311" cy="434.948" fill="#e53950" r="14.475"/><path d="m250.582 210.198c46.53 27.45 77.75 78.09 77.75 136.02 0 87.56-71.29 158.47-159 157.83-86.12-.62-156.34-71.09-156.67-157.21-.23-61.58 34.81-115.01 86.07-141.22 8.67-4.44 14.05-13.44 14.05-23.18v-51.01h124.88v56.22c0 9.28 4.93 17.83 12.92 22.55z" fill="#f9f7f8"/><path d="m237.662 151.325h-74.425v-19.898h-50.455v51.01c0 9.74-5.38 18.74-14.05 23.18-51.26 26.21-86.3 79.64-86.07 141.22.279 72.843 50.561 134.484 118.171 152.135-40.713-28.492-67.513-75.648-67.717-128.768-.23-61.58 34.81-115.01 86.07-141.22 8.67-4.44 14.05-13.44 14.05-23.18v-12.947c0-8.52 6.907-15.427 15.427-15.427h58.998v-26.105z" fill="#efedef"/><g id="XMLID_1101_"><g><path d="m281.002 281.898c11.34 19.43 17.33 41.67 17.33 64.32 0 34.15-13.29 66.26-37.44 90.4-24.14 24.14-56.24 37.44-90.38 37.44-.01 0-.96 0-.96 0-69.7-.51-126.62-57.63-126.89-127.33-.18-48.48 26.54-92.31 69.73-114.4 18.74-9.59 30.39-28.71 30.39-49.89v-30.01-32.01h65.79l-.91 32.01v30 5.22c0 19.77 10.6 38.31 27.68 48.39 18.84 11.11 34.63 26.98 45.66 45.86z" fill="#d4f2f6"/></g></g><path d="m163.237 151.325v-19.898h-20.455v21 30.01c0 21.18-11.65 40.3-30.39 49.89-38.589 19.736-64.011 56.832-68.866 99.088h24.245c11.113-44.723 41.294-81.916 81.416-102.431 8.67-4.44 14.05-13.44 14.05-23.18v-12.947c0-8.52 6.907-15.427 15.427-15.427h28.998v-25.004l.031-1.102h-44.456z" fill="#a6e7f0"/><path d="m238.498 152.431h-135.994c-8.685 0-15.726-7.041-15.726-15.726v-24.543c0-8.685 7.041-15.726 15.726-15.726h135.994c8.685 0 15.726 7.041 15.726 15.726v24.543c0 8.685-7.041 15.726-15.726 15.726z" fill="#efedef"/><path d="m138.619 101.387v-4.951h-36.115c-8.685 0-15.726 7.041-15.726 15.726v24.543c0 8.685 7.041 15.726 15.726 15.726h135.994c8.685 0 15.726-7.041 15.726-15.726v-.81h-81.096c-19.059.001-34.509-15.45-34.509-34.508z" fill="#e5e1e5"/><g id="XMLID_1102_"><g><path d="m297.062 328.248c.84 5.93 1.27 11.94 1.27 17.97 0 34.15-13.29 66.26-37.44 90.4-24.14 24.14-56.24 37.44-90.38 37.44-.01 0-.96 0-.96 0-69.7-.51-126.62-57.63-126.89-127.33-.02-6.25.4-12.42 1.25-18.48z" fill="#a6e7f0"/></g></g><g fill="#6bd9e7"><circle cx="101.231" cy="378.555" r="16.951"/><circle cx="192.739" cy="420.473" r="22.238"/><circle cx="177.294" cy="361.084" r="7.816"/></g><circle cx="338.706" cy="445.597" fill="#e53950" r="7.816"/><circle cx="133.064" cy="427.131" fill="#6bd9e7" r="7.816"/><circle cx="250.712" cy="368.901" fill="#6bd9e7" r="12.384"/><circle cx="358.929" cy="406.931" fill="#e53950" r="12.384"/><path d="m413.122 178.158h-105.417c-7.52 0-13.615-6.096-13.615-13.615v-24.223c0-7.52 6.096-13.615 13.615-13.615h105.417c7.52 0 13.615 6.096 13.615 13.615v24.223c0 7.519-6.096 13.615-13.615 13.615z" fill="#e5e1e5"/><path d="m332.393 133.696v-6.992h-24.687c-7.52 0-13.615 6.096-13.615 13.615v24.223c0 7.52 6.096 13.615 13.615 13.615h105.417c7.52 0 13.615-6.096 13.615-13.615v-2.737h-66.235c-15.525.001-28.11-12.584-28.11-28.109z" fill="#d7d0d6"/><path d="m339.178 58.954h-126.025c-7.52 0-13.615-6.096-13.615-13.615v-24.224c0-7.52 6.096-13.615 13.615-13.615h126.025c7.52 0 13.615 6.096 13.615 13.615v24.223c0 7.52-6.096 13.616-13.615 13.616z" fill="#efedef"/><path d="m245.059 15.662v-8.162h-31.907c-7.52 0-13.615 6.096-13.615 13.615v24.223c0 7.52 6.096 13.615 13.615 13.615h126.025c7.52 0 13.615-6.096 13.615-13.615v-3.262h-81.32c-14.587 0-26.413-11.826-26.413-26.414z" fill="#e5e1e5"/><path d="m43.912 328.248c-.85 6.06-1.27 12.23-1.25 18.48.127 32.835 12.83 62.875 33.515 85.523l-7.885-22.685c-3.321-12.589-5.122-25.777-5.174-39.36-.054-14.526 1.876-28.589 5.497-41.958z" fill="#6bd9e7"/></g><g><circle cx="338.706" cy="445.597" r="7.816"/></g><g><circle cx="133.064" cy="427.131" r="7.816"/></g><g><path d="m339.177 66.454h-126.024c-11.643 0-21.116-9.473-21.116-21.115v-24.224c0-11.642 9.473-21.115 21.116-21.115h126.024c11.643 0 21.116 9.473 21.116 21.115v24.224c0 11.642-9.473 21.115-21.116 21.115zm-126.024-51.454c-3.372 0-6.116 2.743-6.116 6.115v24.224c0 3.372 2.744 6.115 6.116 6.115h126.024c3.372 0 6.116-2.743 6.116-6.115v-24.224c0-3.372-2.744-6.115-6.116-6.115z"/></g><g><path d="m101.231 403.006c13.482 0 24.451-10.969 24.451-24.451s-10.969-24.451-24.451-24.451-24.451 10.969-24.451 24.451 10.969 24.451 24.451 24.451zm0-33.902c5.211 0 9.451 4.24 9.451 9.451s-4.24 9.451-9.451 9.451-9.451-4.24-9.451-9.451 4.24-9.451 9.451-9.451z"/><path d="m192.739 450.211c16.397 0 29.737-13.341 29.737-29.738s-13.34-29.737-29.737-29.737-29.738 13.34-29.738 29.737 13.34 29.738 29.738 29.738zm0-44.476c8.126 0 14.737 6.611 14.737 14.737 0 8.127-6.611 14.738-14.737 14.738s-14.738-6.611-14.738-14.738c0-8.125 6.611-14.737 14.738-14.737z"/><ellipse cx="177.294" cy="361.084" rx="7.816" ry="7.816" transform="matrix(.987 -.16 .16 .987 -55.55 33.062)"/><path d="m250.712 388.784c10.964 0 19.884-8.92 19.884-19.884s-8.92-19.884-19.884-19.884-19.884 8.92-19.884 19.884 8.921 19.884 19.884 19.884zm0-24.767c2.693 0 4.884 2.19 4.884 4.884s-2.191 4.884-4.884 4.884-4.884-2.19-4.884-4.884 2.192-4.884 4.884-4.884z"/><path d="m358.929 426.815c10.964 0 19.884-8.92 19.884-19.884s-8.92-19.884-19.884-19.884-19.884 8.92-19.884 19.884 8.92 19.884 19.884 19.884zm0-24.767c2.693 0 4.884 2.19 4.884 4.884s-2.191 4.884-4.884 4.884-4.884-2.19-4.884-4.884 2.191-4.884 4.884-4.884z"/><path d="m405.312 456.923c12.117 0 21.975-9.857 21.975-21.975s-9.858-21.976-21.975-21.976-21.975 9.858-21.975 21.976 9.857 21.975 21.975 21.975zm0-28.95c3.846 0 6.975 3.129 6.975 6.976 0 3.846-3.129 6.975-6.975 6.975s-6.975-3.129-6.975-6.975c-.001-3.847 3.128-6.976 6.975-6.976z"/><path d="m501.488 442.256-80.385-165.088v-93.088c7.695-3.156 13.134-10.719 13.134-19.537v-24.224c0-11.643-9.472-21.115-21.115-21.115h-66.445v-60.25c0-4.143-3.358-7.5-7.5-7.5s-7.5 3.357-7.5 7.5v60.25h-15.377v-60.25c0-4.143-3.358-7.5-7.5-7.5s-7.5 3.357-7.5 7.5v61.25c-8.52 2.719-14.71 10.706-14.71 20.115v24.224c0 8.818 5.438 16.382 13.134 19.537v59.046c-12.563-15.717-27.93-29.125-45.328-39.39-5.696-3.36-9.235-9.526-9.235-16.092v-28.691c9.569-2.871 16.563-11.756 16.563-22.248v-24.543c0-8.194-4.268-15.404-10.694-19.54v-33.668c0-4.143-3.358-7.5-7.5-7.5s-7.5 3.357-7.5 7.5v29.981h-15.377v-29.981c0-4.143-3.358-7.5-7.5-7.5s-7.5 3.357-7.5 7.5v29.981h-17.877c-4.142 0-7.5 3.357-7.5 7.5s3.358 7.5 7.5 7.5h50.722c4.536 0 8.226 3.69 8.226 8.227v24.543c0 4.536-3.69 8.227-8.226 8.227h-.837-124.883-10.274c-4.536 0-8.226-3.69-8.226-8.227v-24.543c0-4.536 3.69-8.227 8.226-8.227h53.31c4.142 0 7.5-3.357 7.5-7.5s-3.358-7.5-7.5-7.5h-53.31c-12.807 0-23.226 10.419-23.226 23.227v24.543c0 12.808 10.419 23.227 23.226 23.227h2.774v22.501c0 7.037-3.818 13.36-9.964 16.504-26.795 13.705-49.374 34.475-65.294 60.065-16.377 26.323-24.971 56.707-24.852 87.864.344 90.156 73.964 164.034 164.111 164.687.412.003.819.004 1.231.004 21.178 0 41.743-3.964 60.865-11.528 8.671 7.465 19.598 11.528 31.299 11.528h195.478c16.723 0 32-8.465 40.867-22.644s9.79-31.621 2.469-46.657zm-82.251-301.937v24.224c0 3.372-2.743 6.115-6.115 6.115h-105.417c-3.372 0-6.115-2.743-6.115-6.115v-24.224c0-3.372 2.743-6.115 6.115-6.115h105.417c3.372 0 6.115 2.743 6.115 6.115zm41.793 321.637c.252.518.776 1.594-.164 3.098-.94 1.503-2.138 1.503-2.713 1.503h-174.272c1.045-.986 2.081-1.985 3.104-3.001 23.611-23.441 39.271-52.722 45.635-84.61h87.99zm-134.68-170.943c-3.128-8.845-7.014-17.423-11.626-25.635v-79.719h15v98.426zm-156.962 205.54c-81.968-.593-148.908-67.768-149.221-149.743-.217-57.001 31.194-108.545 81.977-134.518 11.186-5.722 18.134-17.163 18.134-29.859v-22.501h15v22.501c0 18.356-10.079 34.915-26.304 43.213-15.291 7.821-28.762 18.257-40.042 31.02-2.743 3.104-2.451 7.844.653 10.587 1.427 1.261 3.199 1.88 4.964 1.88 2.075 0 4.14-.856 5.623-2.533 10.032-11.351 22.021-20.636 35.633-27.598 21.264-10.876 34.474-32.552 34.474-56.568v-22.501h49.883v27.713c0 22.417 12.02 43.435 31.37 54.851 17.743 10.467 32.61 25.401 42.994 43.188 6.364 10.901 10.923 22.751 13.58 35.061h-235.216c2.183-10.164 5.651-20.026 10.346-29.247 1.879-3.691.411-8.207-3.281-10.087-3.689-1.878-8.207-.41-10.086 3.28-6.672 13.104-11.159 27.347-13.285 41.976-.078.365-.124.741-.147 1.124-.859 6.274-1.295 12.613-1.271 18.962.282 73.796 60.542 134.267 134.36 134.802l.984.003c36.147 0 70.129-14.076 95.688-39.635 25.561-25.561 39.637-59.548 39.637-95.7 0-6.284-.447-12.537-1.307-18.716-.026-.263-.064-.522-.116-.776-2.483-17.123-8.205-33.654-16.935-48.608-11.672-19.994-28.383-36.78-48.326-48.546-14.798-8.73-23.991-24.798-23.991-41.931v-27.713h15v27.713c0 11.85 6.366 22.966 16.613 29.012 22.144 13.063 40.699 31.703 53.659 53.902.065.111.125.226.189.337.008.014.016.028.024.042 13.206 22.775 20.191 48.795 20.191 75.284 0 8.017-.633 15.934-1.855 23.701-.009.045-.013.091-.022.136-4.951 31.284-19.621 60.095-42.543 82.851-28.641 28.433-66.63 43.965-107.028 43.641zm121.448-150.331c0 32.146-12.517 62.366-35.244 85.094-22.725 22.726-52.941 35.241-85.062 35.241l-.926-.003c-65.607-.475-119.187-54.243-119.438-119.858-.014-3.658.142-7.313.459-10.951h239.74c.303 3.475.471 6.97.471 10.477zm195.465 134.738c-6.107 9.766-16.63 15.597-28.149 15.597h-195.477c-5.519 0-10.782-1.316-15.468-3.787 6.325-3.321 12.449-7.062 18.334-11.213h192.612c6.409 0 12.033-3.116 15.432-8.551 3.396-5.435 3.736-11.855.932-17.616l-58.168-119.46c-1.814-3.726-6.304-5.273-10.026-3.46-3.724 1.813-5.273 6.303-3.46 10.026l10.444 21.449h-78.412c.619-5.847.942-11.76.942-17.724 0-11.274-1.162-22.47-3.414-33.415l11.545-23.711c.498-1.022.757-2.146.757-3.283v-100.154h31.38v100.154c0 1.138.259 2.261.757 3.283l11.986 24.616c1.299 2.667 3.969 4.219 6.749 4.219 1.102 0 2.221-.244 3.278-.759 3.724-1.813 5.273-6.303 3.46-10.026l-11.229-23.062v-98.426h15v93.238c0 1.138.259 2.261.757 3.283l81.142 166.643c5.039 10.359 4.404 22.372-1.704 32.139z"/></g></g></svg>
