<svg id="Capa_1" enable-background="new 0 0 511.721 511.721" height="512" viewBox="0 0 511.721 511.721" width="512" xmlns="http://www.w3.org/2000/svg"><g><g><circle cx="255.86" cy="255.86" fill="#9cf8d2" r="248.36"/><path d="m75.449 255.86c0-125.639 93.312-229.487 214.401-246.054-11.11-1.52-22.463-2.306-33.99-2.306-137.165 0-248.36 111.195-248.36 248.36s111.195 248.36 248.36 248.36c11.527 0 22.893-.788 34.003-2.308-121.089-16.567-214.414-120.413-214.414-246.052z" fill="#6cf5c2"/><g id="XMLID_1108_"><g><circle cx="255.86" cy="255.86" fill="#f9f7f8" r="173.47"/></g></g><g fill="#9cf8d2"><path d="m253.624 232.411-49.006-49.006c-5.857-5.857-15.355-5.857-21.213 0s-5.858 15.355 0 21.213l49.006 49.006 12.247 11.075 20.921-19.897z"/><path d="m278.116 248.15 47.937 17.875c7.762 2.895 11.708 11.533 8.814 19.296-2.25 6.034-7.974 9.763-14.057 9.763-1.741 0-3.512-.305-5.239-.949l-47.945-17.878-28.445-11.558 17.518-22.868z"/></g><circle cx="255.86" cy="255.86" fill="#baafb9" r="23.558"/><g><path d="m255.863 52.4c112.37 0 203.47 91.1 203.47 203.47s-91.1 203.47-203.47 203.47-203.47-91.1-203.47-203.47 91.1-203.47 203.47-203.47zm173.47 203.47c0-95.65-77.82-173.47-173.47-173.47s-173.47 77.82-173.47 173.47 77.82 173.47 173.47 173.47 173.47-77.82 173.47-173.47z" fill="#cffce9"/></g><path d="m140.652 423.601c-40.481-44.183-65.203-103.091-65.203-167.74s24.716-123.546 65.197-167.729c-53.296 36.688-88.256 98.136-88.256 167.728s34.966 131.052 88.262 167.741z" fill="#9cf8d2"/></g><g><path d="m436.781 74.939c-48.326-48.325-112.578-74.939-180.921-74.939s-132.594 26.614-180.92 74.939c-48.326 48.327-74.94 112.579-74.94 180.921s26.614 132.595 74.94 180.921c48.326 48.325 112.578 74.939 180.92 74.939s132.595-26.614 180.92-74.939c48.326-48.326 74.94-112.578 74.94-180.921s-26.614-132.594-74.939-180.921zm-10.607 351.236c-45.493 45.492-105.978 70.546-170.314 70.546s-124.821-25.054-170.314-70.546c-45.492-45.493-70.546-105.979-70.546-170.315s25.054-124.821 70.546-170.314c45.493-45.492 105.978-70.546 170.314-70.546s124.821 25.054 170.314 70.546c45.493 45.493 70.546 105.979 70.546 170.314s-25.053 124.822-70.546 170.315z"/><path d="m255.86 44.894c-116.328 0-210.967 94.64-210.967 210.967s94.64 210.967 210.967 210.967c78.955 0 150.686-43.539 187.202-113.626 1.914-3.674.487-8.203-3.186-10.117-3.672-1.914-8.203-.486-10.117 3.186-33.922 65.11-100.557 105.558-173.899 105.558-108.057 0-195.967-87.91-195.967-195.967s87.911-195.968 195.967-195.968 195.967 87.91 195.967 195.967c0 21.203-3.373 42.07-10.026 62.024-1.311 3.93.813 8.177 4.743 9.487 3.928 1.305 8.177-.813 9.487-4.743 7.164-21.486 10.796-43.95 10.796-66.769.001-116.327-94.639-210.966-210.967-210.966z"/><path d="m199.315 188.709 11.188 11.188c2.929 2.928 7.678 2.929 10.606-.001 2.929-2.929 2.929-7.678 0-10.606l-11.188-11.188c-8.773-8.772-23.047-8.772-31.819 0-4.25 4.25-6.59 9.9-6.59 15.91s2.341 11.66 6.59 15.91l46.72 46.72c.417 16.765 14.175 30.277 31.038 30.277.171 0 .339-.01.509-.013l23.9 89.718c.894 3.355 3.926 5.571 7.242 5.571.639 0 1.289-.082 1.936-.255 4.002-1.066 6.383-5.175 5.316-9.178l-23.183-87.027 41.369 15.425c2.53.944 5.174 1.423 7.861 1.423 9.345 0 17.817-5.884 21.084-14.643 4.334-11.624-1.596-24.608-13.221-28.943l-44.901-16.743c-4.945-10.104-15.216-17.137-27.132-17.434l-12.931-12.931c-2.929-2.928-7.678-2.928-10.606 0-2.929 2.93-2.929 7.678 0 10.607l6.754 6.754c-4.338 2.619-7.987 6.268-10.606 10.606l-40.544-40.544c-1.417-1.416-2.197-3.3-2.197-5.303s.78-3.887 2.197-5.303c2.926-2.923 7.684-2.923 10.608.003zm128.525 93.991c-1.089 2.921-3.914 4.884-7.029 4.884-.89 0-1.771-.16-2.618-.477l-36.727-13.695c2.811-4.088 4.667-8.879 5.25-14.051l36.717 13.691c3.875 1.446 5.852 5.774 4.407 9.648zm-55.922-26.84c0 8.854-7.204 16.059-16.058 16.059s-16.058-7.204-16.058-16.059 7.204-16.059 16.058-16.059 16.058 7.205 16.058 16.059z"/><path d="m151.209 358.616c-2.929-2.928-7.678-2.928-10.606 0l-8.125 8.125c-10.305-11.456-19.022-24.325-25.844-38.29-1.818-3.722-6.309-5.266-10.031-3.447-3.722 1.818-5.265 6.31-3.447 10.031 14.673 30.036 37.354 55.44 65.59 73.469 29.023 18.53 62.605 28.324 97.114 28.324 99.786 0 180.967-81.182 180.967-180.968s-81.181-180.967-180.967-180.967-180.967 81.181-180.967 180.967c0 16.198 2.165 32.299 6.435 47.856 1.096 3.994 5.22 6.342 9.218 5.247 3.994-1.097 6.344-5.223 5.247-9.218-3.373-12.29-5.305-24.953-5.777-37.725h11.685c4.142 0 7.5-3.357 7.5-7.5s-3.358-7.5-7.5-7.5h-11.572c2.113-40.063 18.505-76.399 44.161-104.018l8.206 8.207c1.464 1.464 3.384 2.196 5.303 2.196s3.839-.732 5.303-2.196c2.929-2.93 2.929-7.678 0-10.607l-8.124-8.124c27.987-25.177 64.553-40.987 104.72-42.46v11.683c0 4.143 3.358 7.5 7.5 7.5s7.5-3.357 7.5-7.5v-11.572c40.064 2.113 76.399 18.505 104.018 44.162l-8.206 8.206c-2.929 2.93-2.929 7.678 0 10.607 1.464 1.464 3.384 2.196 5.303 2.196s3.839-.732 5.303-2.196l8.124-8.125c25.177 27.988 40.986 64.553 42.459 104.719h-11.679c-4.142 0-7.5 3.357-7.5 7.5s3.358 7.5 7.5 7.5h11.572c-2.113 40.063-18.505 76.399-44.161 104.018l-8.206-8.207c-2.929-2.928-7.678-2.928-10.606 0-2.929 2.93-2.929 7.678 0 10.607l8.124 8.124c-27.987 25.177-64.553 40.987-104.72 42.46v-11.68c0-4.143-3.358-7.5-7.5-7.5s-7.5 3.357-7.5 7.5v11.548c-28.517-1.513-56.08-10.306-80.203-25.707-8.519-5.439-16.474-11.624-23.81-18.436l8.202-8.202c2.927-2.929 2.927-7.677-.003-10.607z"/></g></g></svg>
