<svg id="Capa_1" enable-background="new 0 0 512 512" height="512" viewBox="0 0 512 512" width="512" xmlns="http://www.w3.org/2000/svg"><g><path d="m374.25 24.789h16.254v32.508h-16.254z" fill="#ffd064" transform="matrix(.707 -.707 .707 .707 82.974 282.402)"/><circle cx="370.883" cy="29.55" fill="#ffe07d" r="8.127"/><path d="m454.703 105.242h16.254v32.508h-16.254z" fill="#ffd064" transform="matrix(-.707 .707 -.707 -.707 876.011 -119.863)"/><circle cx="474.323" cy="132.99" fill="#ffe07d" r="8.127"/><path d="m374.25 105.242h16.254v32.508h-16.254z" fill="#ffd064" transform="matrix(-.707 -.707 .707 -.707 566.847 477.788)"/><circle cx="370.883" cy="132.99" fill="#ffe07d" r="8.127"/><path d="m454.703 24.789h16.254v32.508h-16.254z" fill="#ffd064" transform="matrix(.707 .707 -.707 .707 164.582 -315.249)"/><circle cx="474.323" cy="29.55" fill="#ffe07d" r="8.127"/><path d="m357.587 65.016h16.254v32.508h-16.254z" fill="#ffd064" transform="matrix(0 -1 1 0 284.445 446.984)"/><circle cx="349.46" cy="81.27" fill="#ffe07d" r="8.127"/><path d="m471.365 65.016h16.254v32.508h-16.254z" fill="#ffd064" transform="matrix(0 1 -1 0 560.762 -398.222)"/><circle cx="495.746" cy="81.27" fill="#ffe07d" r="8.127"/><path d="m414.476 121.905h16.254v32.508h-16.254z" fill="#ffd064" transform="matrix(-1 0 0 -1 845.206 276.318)"/><circle cx="422.603" cy="154.413" fill="#ffe07d" r="8.127"/><path d="m414.476 8.127h16.254v32.508h-16.254z" fill="#ffd064"/><circle cx="422.603" cy="8.127" fill="#ffe07d" r="8.127"/><path d="m471.365 81.27c0 10.09-3.064 19.464-8.313 27.242-8.761 12.983-23.608 17.988-40.449 17.988-26.93 0-43.103-18.3-43.103-45.23 0-16.841 2.879-31.688 15.861-40.449 7.778-5.249 17.152-8.313 27.242-8.313 26.931 0 48.762 21.831 48.762 48.762z" fill="#ff8086"/><path d="m435.81 116.825c-26.931 0-48.762-21.831-48.762-48.762 0-10.09 3.065-19.464 8.314-27.242-12.983 8.761-21.52 23.608-21.52 40.449 0 26.931 21.831 48.762 48.762 48.762 16.841 0 31.688-8.537 40.449-21.52-7.78 5.248-17.154 8.313-27.243 8.313z" fill="#e5646e"/><path d="m67.048 18.471h16.254v40.635h-16.254z" fill="#ffd064" transform="matrix(-.866 .5 -.5 -.866 159.672 34.792)"/><circle cx="65.016" cy="21.193" fill="#ffe07d" r="8.127"/><path d="m144.254 152.196h16.254v40.635h-16.254z" fill="#ffd064" transform="matrix(.866 -.5 .5 .866 -65.842 99.303)"/><circle cx="162.54" cy="190.109" fill="#ffe07d" r="8.127"/><path d="m172.513 46.73h16.254v40.635h-16.254z" fill="#ffd064" transform="matrix(-.5 -.866 .866 -.5 212.896 257.011)"/><circle cx="198.236" cy="56.889" fill="#ffe07d" r="8.127"/><path d="m38.788 123.937h16.254v40.635h-16.254z" fill="#ffd064" transform="matrix(.5 .866 -.866 .5 148.385 31.497)"/><circle cx="29.32" cy="154.413" fill="#ffe07d" r="8.127"/><path d="m144.254 18.471h16.254v40.635h-16.254z" fill="#ffd064" transform="matrix(.866 .5 -.5 .866 39.809 -70.994)"/><circle cx="162.54" cy="21.193" fill="#ffe07d" r="8.127"/><path d="m67.048 152.196h16.254v40.635h-16.254z" fill="#ffd064" transform="matrix(-.866 -.5 .5 -.866 54.021 359.502)"/><circle cx="65.016" cy="190.109" fill="#ffe07d" r="8.127"/><path d="m38.788 46.73h16.254v40.635h-16.254z" fill="#ffd064" transform="matrix(.5 -.866 .866 .5 -34.607 74.154)"/><circle cx="29.32" cy="56.889" fill="#ffe07d" r="8.127"/><path d="m172.513 123.937h16.254v40.635h-16.254z" fill="#ffd064" transform="matrix(-.5 .866 -.866 -.5 395.888 59.942)"/><circle cx="198.236" cy="154.413" fill="#ffe07d" r="8.127"/><path d="m182.857 85.333h16.254v40.635h-16.254z" fill="#ffd064" transform="matrix(0 1 -1 0 296.635 -85.333)"/><circle cx="211.302" cy="105.651" fill="#ffe07d" r="8.127"/><path d="m28.444 85.333h16.254v40.635h-16.254z" fill="#ffd064" transform="matrix(0 -1 1 0 -69.079 142.222)"/><circle cx="16.254" cy="105.651" fill="#ffe07d" r="8.127"/><path d="m105.651 8.127h16.254v40.635h-16.254z" fill="#ffd064"/><circle cx="113.778" cy="8.127" fill="#ffe07d" r="8.127"/><path d="m105.651 162.54h16.254v40.635h-16.254z" fill="#ffd064" transform="matrix(-1 0 0 -1 227.556 365.714)"/><circle cx="113.778" cy="203.175" fill="#ffe07d" r="8.127"/><path d="m178.794 105.651c0 14.314-4.625 27.547-12.463 38.287-11.824 16.202-30.959 23.562-52.553 23.562-35.907 0-60.778-25.942-60.778-61.849 0-21.581 6.276-40.706 22.462-52.531 10.745-7.851 23.989-12.484 38.316-12.484 35.907-.001 65.016 29.108 65.016 65.015z" fill="#ff8086"/><path d="m128 156.444c-35.907 0-65.016-29.109-65.016-65.016 0-14.322 4.632-27.566 12.478-38.309-16.191 11.825-26.7 30.946-26.7 52.531 0 35.907 29.109 65.016 65.016 65.016 21.585 0 40.727-10.538 52.553-26.729-10.744 7.846-24.009 12.507-38.331 12.507z" fill="#e5646e"/><g><g><path d="m275.452 255.262c-3.587 0-6.873-2.397-7.841-6.028l-6.31-23.548c-1.159-4.333 1.413-8.79 5.746-9.952 4.325-1.155 8.794 1.413 9.952 5.746l6.31 23.548c1.159 4.333-1.413 8.79-5.746 9.952-.706.191-1.412.282-2.111.282z" fill="#c3ddff"/></g><g><path d="m332.238 467.214c-3.587 0-6.873-2.397-7.841-6.028l-6.31-23.548c-1.159-4.333 1.413-8.79 5.746-9.952 4.325-1.159 8.794 1.413 9.952 5.746l6.31 23.548c1.159 4.333-1.413 8.79-5.746 9.952-.706.191-1.413.282-2.111.282z" fill="#c3ddff"/></g><g><g><path d="m394.889 324.222c-3.587 0-6.873-2.397-7.841-6.028-1.159-4.337 1.413-8.794 5.746-9.952l23.556-6.31c4.349-1.151 8.802 1.409 9.952 5.746 1.159 4.337-1.413 8.794-5.746 9.952l-23.556 6.31c-.706.191-1.413.282-2.111.282z" fill="#c3ddff"/></g><g><path d="m182.937 381.016c-3.587 0-6.873-2.397-7.841-6.028-1.159-4.337 1.413-8.794 5.746-9.952l23.556-6.31c4.349-1.159 8.794 1.413 9.952 5.746 1.159 4.337-1.413 8.794-5.746 9.952l-23.556 6.31c-.707.191-1.413.282-2.111.282z" fill="#c3ddff"/></g></g><g><g><path d="m206.508 324.222c-.698 0-1.405-.091-2.111-.282l-23.556-6.31c-4.333-1.159-6.905-5.615-5.746-9.952s5.627-6.893 9.952-5.746l23.556 6.31c4.333 1.159 6.905 5.615 5.746 9.952-.968 3.631-4.254 6.028-7.841 6.028z" fill="#c3ddff"/></g><g><path d="m418.46 381.016c-.698 0-1.405-.091-2.111-.282l-23.556-6.31c-4.333-1.159-6.905-5.615-5.746-9.952 1.159-4.333 5.627-6.901 9.952-5.746l23.556 6.31c4.333 1.159 6.905 5.615 5.746 9.952-.968 3.631-4.253 6.028-7.841 6.028z" fill="#c3ddff"/></g><g><g><path d="m325.944 255.262c-.698 0-1.405-.091-2.111-.282-4.333-1.163-6.905-5.619-5.746-9.952l6.31-23.548c1.159-4.333 5.619-6.897 9.952-5.746 4.333 1.163 6.905 5.619 5.746 9.952l-6.31 23.548c-.968 3.631-4.253 6.028-7.841 6.028z" fill="#c3ddff"/></g><g><path d="m269.159 467.214c-.698 0-1.405-.091-2.111-.282-4.333-1.163-6.905-5.619-5.746-9.952l6.31-23.548c1.159-4.333 5.619-6.901 9.952-5.746 4.333 1.163 6.905 5.619 5.746 9.952l-6.31 23.548c-.968 3.631-4.254 6.028-7.841 6.028z" fill="#c3ddff"/></g></g></g><g><g><path d="m369.659 280.5c-2.079 0-4.159-.794-5.746-2.381-3.175-3.175-3.175-8.317 0-11.492l17.238-17.238c3.175-3.175 8.317-3.175 11.492 0s3.175 8.317 0 11.492l-17.238 17.238c-1.588 1.587-3.667 2.381-5.746 2.381z" fill="#c3ddff"/></g><g><path d="m214.5 435.659c-2.079 0-4.159-.794-5.746-2.381-3.175-3.175-3.175-8.317 0-11.492l17.238-17.238c3.175-3.175 8.317-3.175 11.492 0s3.175 8.317 0 11.492l-17.238 17.238c-1.587 1.587-3.667 2.381-5.746 2.381z" fill="#c3ddff"/></g><g><g><path d="m231.738 280.5c-2.079 0-4.159-.794-5.746-2.381l-17.238-17.238c-3.175-3.175-3.175-8.317 0-11.492s8.317-3.175 11.492 0l17.238 17.238c3.175 3.175 3.175 8.317 0 11.492-1.587 1.587-3.667 2.381-5.746 2.381z" fill="#c3ddff"/></g><g><path d="m386.897 435.659c-2.079 0-4.159-.794-5.746-2.381l-17.238-17.238c-3.175-3.175-3.175-8.317 0-11.492s8.317-3.175 11.492 0l17.238 17.238c3.175 3.175 3.175 8.317 0 11.492-1.587 1.587-3.667 2.381-5.746 2.381z" fill="#c3ddff"/></g></g></g></g><path d="m231.619 211.38h16.254v48.762h-16.254z" fill="#ffd064" transform="matrix(-.866 .5 -.5 -.866 565.253 320.063)"/><path d="m353.524 422.525h16.254v48.762h-16.254z" fill="#ffd064" transform="matrix(-.866 .5 -.5 -.866 898.303 653.113)"/><circle cx="377.905" cy="475.059" fill="#ffe07d" r="16.254"/><circle cx="223.492" cy="207.608" fill="#ffe07d" r="16.254"/><path d="m398.144 256h16.254v48.762h-16.254z" fill="#ffd064" transform="matrix(-.5 -.866 .866 -.5 366.59 772.413)"/><path d="m186.999 377.905h16.254v48.762h-16.254z" fill="#ffd064" transform="matrix(-.5 -.866 .866 -.5 -55.701 772.413)"/><circle cx="166.973" cy="418.54" fill="#ffe07d" r="16.254"/><circle cx="434.424" cy="264.127" fill="#ffe07d" r="16.254"/><path d="m353.524 211.38h16.254v48.762h-16.254z" fill="#ffd064" transform="matrix(.866 .5 -.5 .866 166.332 -149.24)"/><path d="m231.619 422.525h16.254v48.762h-16.254z" fill="#ffd064" transform="matrix(.866 .5 -.5 .866 255.573 -59.999)"/><circle cx="223.492" cy="475.059" fill="#ffe07d" r="16.254"/><circle cx="377.905" cy="207.608" fill="#ffe07d" r="16.254"/><path d="m186.999 256h16.254v48.762h-16.254z" fill="#ffd064" transform="matrix(.5 -.866 .866 .5 -145.254 309.174)"/><path d="m398.144 377.905h16.254v48.762h-16.254z" fill="#ffd064" transform="matrix(.5 -.866 .866 .5 -145.254 552.984)"/><circle cx="434.424" cy="418.54" fill="#ffe07d" r="16.254"/><circle cx="166.973" cy="264.127" fill="#ffe07d" r="16.254"/><path d="m414.476 316.952h16.254v48.762h-16.254z" fill="#ffd064" transform="matrix(0 1 -1 0 763.937 -81.27)"/><path d="m170.667 316.952h16.254v48.762h-16.254z" fill="#ffd064" transform="matrix(0 1 -1 0 520.127 162.54)"/><circle cx="146.286" cy="341.333" fill="#ffe07d" r="16.254"/><circle cx="455.111" cy="341.333" fill="#ffe07d" r="16.254"/><path d="m292.571 195.048h16.254v48.762h-16.254z" fill="#ffd064"/><path d="m292.571 438.857h16.254v48.762h-16.254z" fill="#ffd064"/><path d="m200.5 341.333c0-33.316 9.969-63.03 34.062-82.395 18.103-14.55 41.103-23.256 66.136-23.256 58.349 0 105.651 47.301 105.651 105.651 0 25.029-8.703 48.025-23.249 66.127-19.364 24.099-49.082 34.79-82.402 34.79-58.349 0-100.198-42.567-100.198-100.917z" fill="#ff8086"/><path d="m316.952 430.73c-58.349 0-105.651-47.302-105.651-105.651 0-25.032 8.712-48.037 23.26-66.141-24.095 19.364-39.514 49.078-39.514 82.395 0 58.349 47.302 105.651 105.651 105.651 33.317 0 63.038-15.429 82.402-39.524-18.103 14.549-41.115 23.27-66.148 23.27z" fill="#e5646e"/><g fill="#ffe07d"><circle cx="300.698" cy="495.746" r="16.254"/><circle cx="300.698" cy="186.921" r="16.254"/><circle cx="341.333" cy="300.698" r="16.254"/><circle cx="300.698" cy="341.333" r="16.254"/></g><g><path d="m113.778 89.397c-4.492 0-8.127-3.639-8.127-8.127v-8.127c0-4.488 3.635-8.127 8.127-8.127s8.127 3.639 8.127 8.127v8.127c0 4.488-3.635 8.127-8.127 8.127z" fill="#ffe07d"/></g><g><path d="m113.778 146.286c-4.492 0-8.127-3.639-8.127-8.127v-8.127c0-4.488 3.635-8.127 8.127-8.127s8.127 3.639 8.127 8.127v8.127c0 4.488-3.635 8.127-8.127 8.127z" fill="#ffe07d"/></g><g><path d="m146.286 113.778h-8.127c-4.492 0-8.127-3.639-8.127-8.127s3.635-8.127 8.127-8.127h8.127c4.492 0 8.127 3.639 8.127 8.127s-3.635 8.127-8.127 8.127z" fill="#ffe07d"/></g><g><path d="m89.397 113.778h-8.127c-4.492 0-8.127-3.639-8.127-8.127s3.635-8.127 8.127-8.127h8.127c4.492 0 8.127 3.639 8.127 8.127s-3.635 8.127-8.127 8.127z" fill="#ffe07d"/></g><circle cx="260.064" cy="300.698" fill="#ffe07d" r="16.254"/><circle cx="341.333" cy="381.968" fill="#ffe07d" r="16.254"/><circle cx="260.064" cy="381.968" fill="#ffe07d" r="16.254"/><circle cx="300.698" cy="268.19" fill="#c3ddff" r="8.127"/><circle cx="300.698" cy="414.476" fill="#c3ddff" r="8.127"/><circle cx="373.841" cy="341.333" fill="#c3ddff" r="8.127"/><circle cx="227.556" cy="341.333" fill="#c3ddff" r="8.127"/><circle cx="438.857" cy="73.143" fill="#ffe07d" r="8.127"/><circle cx="406.349" cy="73.143" fill="#ffe07d" r="8.127"/><circle cx="422.603" cy="97.524" fill="#ffe07d" r="8.127"/></g></svg>
