<?xml version="1.0" encoding="UTF-8" standalone="no"?><svg xmlns="http://www.w3.org/2000/svg" xmlns:xlink="http://www.w3.org/1999/xlink"><symbol id="chemistry" enable-background="new 0 0 511.557 511.557" viewBox="0 0 511.557 511.557" xmlns="http://www.w3.org/2000/svg"><g><g><g><path d="m339.178 58.954v342.199h-126.025v-367.926h125.43z" fill="#f9f7f8"></path></g><path d="m232.909 277.381h106.268v-1.763c-3.078-7.36-6.642-14.527-10.681-21.446-15.75-26.979-38.3-49.632-65.2-65.501-.397-.234-.634-.617-.634-1.024v-18.163c10.044-7.417 16.562-19.335 16.562-32.779v-24.543c0-5.266-1.006-10.299-2.835-14.921-2.525-6.379 2.213-13.287 9.073-13.287h53.715v-25l-.594-25.727h-125.43v38.209 12.519 93.478h19.757v99.948z" fill="#efedef"></path><path d="m356.696 327.376-47.896-159.295v-142.272h-70.471v106.104l-85.007 195.463z" fill="#fec165"></path><path d="m339.178 277.381v-1.763c-3.078-7.36-6.642-14.527-10.681-21.446-15.75-26.979-38.3-49.632-65.2-65.501-.397-.234-.634-.617-.634-1.024v-8.101c0-5.622 1.981-11.122 5.791-15.256 6.686-7.254 10.77-16.941 10.77-27.584v-24.543c0-5.266-1.006-10.299-2.835-14.921-2.525-6.379 2.213-13.287 9.073-13.287h23.338v-50.728h-70.471v98.686l-19.796 45.519h14.377v99.95h106.268z" fill="#fdb441"></path><path d="m232.982 491.194c7.269 7.799 17.644 12.862 29.693 12.862h195.478c30.069 0 49.756-31.483 36.592-58.517l-81.141-166.644v-100.737h-106.38v89.178l-92.735 198.98z" fill="#efedef"></path><path d="m330.398 178.158h-23.174v24.988 21.73 36.035 6.425l-92.735 198.98 18.493 24.878c7.269 7.799 17.644 12.862 29.693 12.862h.009c54.182-31.767 90.649-90.62 90.649-157.839 0-30.053-7.416-59.619-21.468-85.964-.948-1.777-1.467-3.75-1.467-5.764v-19.513c0-17.573 14.245-31.818 31.818-31.818h50.906c.187-.187.294-.294.482-.482v-24.518z" fill="#e5e1e5"></path><g><g><path d="m467.772 458.678c2.26 4.63.63 8.47-.55 10.35-1.17 1.88-3.91 5.03-9.07 5.03h-183.71c-5.7 0-9.66-5.66-7.72-11.02 13.22-36.54 57.83-151.21 57.83-151.21l12.67-26.02v-107.65-29.89h45.59l.79 29.89v107.65z" fill="#f47c7c"></path></g></g><g><path d="m337.222 215.298c5.827-7.39 14.852-12.14 24.993-12.14h21.387v-25h-46.38z" fill="#ee6161"></path></g><path d="m349.476 383.607c2.521-12.073 3.857-24.577 3.857-37.39 0-25.975-5.538-51.589-16.11-75.074v14.664l-12.67 26.02s-13.445 34.56-27.76 71.78z" fill="#ee6161"></path><g><path d="m467.772 458.678c2.26 4.63.63 8.47-.55 10.35-1.17 1.88-3.91 5.03-9.07 5.03h-183.71c-5.7 0-9.66-5.66-7.72-11.02 6.76-18.69 21.74-57.82 34.75-91.59h123.83z" fill="#ee6161"></path></g><path d="m301.075 474.062c26.751-27.311 45.003-62.949 50.507-102.615h-50.108c-2.132 5.531-4.316 11.205-6.508 16.91-6.121 15.932-12.303 32.098-17.574 46.036-.068.179-.136.36-.203.538-.213.564-.423 1.12-.633 1.676-.173.459-.348.92-.519 1.374-.125.332-.248.658-.372.987-.23.61-.46 1.221-.686 1.821-.056.149-.111.295-.167.443-3.258 8.656-6.048 16.163-8.089 21.804-.121.335-.219.671-.296 1.007-.762 3.359.68 6.689 3.309 8.537 1.314.924 2.926 1.477 4.707 1.477z" fill="#e53950"></path><circle cx="405.311" cy="434.948" fill="#e53950" r="14.475"></circle><path d="m250.582 210.198c46.53 27.45 77.75 78.09 77.75 136.02 0 87.56-71.29 158.47-159 157.83-86.12-.62-156.34-71.09-156.67-157.21-.23-61.58 34.81-115.01 86.07-141.22 8.67-4.44 14.05-13.44 14.05-23.18v-51.01h124.88v56.22c0 9.28 4.93 17.83 12.92 22.55z" fill="#f9f7f8"></path><path d="m237.662 151.325h-74.425v-19.898h-50.455v51.01c0 9.74-5.38 18.74-14.05 23.18-51.26 26.21-86.3 79.64-86.07 141.22.279 72.843 50.561 134.484 118.171 152.135-40.713-28.492-67.513-75.648-67.717-128.768-.23-61.58 34.81-115.01 86.07-141.22 8.67-4.44 14.05-13.44 14.05-23.18v-12.947c0-8.52 6.907-15.427 15.427-15.427h58.998v-26.105z" fill="#efedef"></path><g><g><path d="m281.002 281.898c11.34 19.43 17.33 41.67 17.33 64.32 0 34.15-13.29 66.26-37.44 90.4-24.14 24.14-56.24 37.44-90.38 37.44-.01 0-.96 0-.96 0-69.7-.51-126.62-57.63-126.89-127.33-.18-48.48 26.54-92.31 69.73-114.4 18.74-9.59 30.39-28.71 30.39-49.89v-30.01-32.01h65.79l-.91 32.01v30 5.22c0 19.77 10.6 38.31 27.68 48.39 18.84 11.11 34.63 26.98 45.66 45.86z" fill="#d4f2f6"></path></g></g><path d="m163.237 151.325v-19.898h-20.455v21 30.01c0 21.18-11.65 40.3-30.39 49.89-38.589 19.736-64.011 56.832-68.866 99.088h24.245c11.113-44.723 41.294-81.916 81.416-102.431 8.67-4.44 14.05-13.44 14.05-23.18v-12.947c0-8.52 6.907-15.427 15.427-15.427h28.998v-25.004l.031-1.102h-44.456z" fill="#a6e7f0"></path><path d="m238.498 152.431h-135.994c-8.685 0-15.726-7.041-15.726-15.726v-24.543c0-8.685 7.041-15.726 15.726-15.726h135.994c8.685 0 15.726 7.041 15.726 15.726v24.543c0 8.685-7.041 15.726-15.726 15.726z" fill="#efedef"></path><path d="m138.619 101.387v-4.951h-36.115c-8.685 0-15.726 7.041-15.726 15.726v24.543c0 8.685 7.041 15.726 15.726 15.726h135.994c8.685 0 15.726-7.041 15.726-15.726v-.81h-81.096c-19.059.001-34.509-15.45-34.509-34.508z" fill="#e5e1e5"></path><g><g><path d="m297.062 328.248c.84 5.93 1.27 11.94 1.27 17.97 0 34.15-13.29 66.26-37.44 90.4-24.14 24.14-56.24 37.44-90.38 37.44-.01 0-.96 0-.96 0-69.7-.51-126.62-57.63-126.89-127.33-.02-6.25.4-12.42 1.25-18.48z" fill="#a6e7f0"></path></g></g><g fill="#6bd9e7"><circle cx="101.231" cy="378.555" r="16.951"></circle><circle cx="192.739" cy="420.473" r="22.238"></circle><circle cx="177.294" cy="361.084" r="7.816"></circle></g><circle cx="338.706" cy="445.597" fill="#e53950" r="7.816"></circle><circle cx="133.064" cy="427.131" fill="#6bd9e7" r="7.816"></circle><circle cx="250.712" cy="368.901" fill="#6bd9e7" r="12.384"></circle><circle cx="358.929" cy="406.931" fill="#e53950" r="12.384"></circle><path d="m413.122 178.158h-105.417c-7.52 0-13.615-6.096-13.615-13.615v-24.223c0-7.52 6.096-13.615 13.615-13.615h105.417c7.52 0 13.615 6.096 13.615 13.615v24.223c0 7.519-6.096 13.615-13.615 13.615z" fill="#e5e1e5"></path><path d="m332.393 133.696v-6.992h-24.687c-7.52 0-13.615 6.096-13.615 13.615v24.223c0 7.52 6.096 13.615 13.615 13.615h105.417c7.52 0 13.615-6.096 13.615-13.615v-2.737h-66.235c-15.525.001-28.11-12.584-28.11-28.109z" fill="#d7d0d6"></path><path d="m339.178 58.954h-126.025c-7.52 0-13.615-6.096-13.615-13.615v-24.224c0-7.52 6.096-13.615 13.615-13.615h126.025c7.52 0 13.615 6.096 13.615 13.615v24.223c0 7.52-6.096 13.616-13.615 13.616z" fill="#efedef"></path><path d="m245.059 15.662v-8.162h-31.907c-7.52 0-13.615 6.096-13.615 13.615v24.223c0 7.52 6.096 13.615 13.615 13.615h126.025c7.52 0 13.615-6.096 13.615-13.615v-3.262h-81.32c-14.587 0-26.413-11.826-26.413-26.414z" fill="#e5e1e5"></path><path d="m43.912 328.248c-.85 6.06-1.27 12.23-1.25 18.48.127 32.835 12.83 62.875 33.515 85.523l-7.885-22.685c-3.321-12.589-5.122-25.777-5.174-39.36-.054-14.526 1.876-28.589 5.497-41.958z" fill="#6bd9e7"></path></g><g><circle cx="338.706" cy="445.597" r="7.816"></circle></g><g><circle cx="133.064" cy="427.131" r="7.816"></circle></g><g><path d="m339.177 66.454h-126.024c-11.643 0-21.116-9.473-21.116-21.115v-24.224c0-11.642 9.473-21.115 21.116-21.115h126.024c11.643 0 21.116 9.473 21.116 21.115v24.224c0 11.642-9.473 21.115-21.116 21.115zm-126.024-51.454c-3.372 0-6.116 2.743-6.116 6.115v24.224c0 3.372 2.744 6.115 6.116 6.115h126.024c3.372 0 6.116-2.743 6.116-6.115v-24.224c0-3.372-2.744-6.115-6.116-6.115z"></path></g><g><path d="m101.231 403.006c13.482 0 24.451-10.969 24.451-24.451s-10.969-24.451-24.451-24.451-24.451 10.969-24.451 24.451 10.969 24.451 24.451 24.451zm0-33.902c5.211 0 9.451 4.24 9.451 9.451s-4.24 9.451-9.451 9.451-9.451-4.24-9.451-9.451 4.24-9.451 9.451-9.451z"></path><path d="m192.739 450.211c16.397 0 29.737-13.341 29.737-29.738s-13.34-29.737-29.737-29.737-29.738 13.34-29.738 29.737 13.34 29.738 29.738 29.738zm0-44.476c8.126 0 14.737 6.611 14.737 14.737 0 8.127-6.611 14.738-14.737 14.738s-14.738-6.611-14.738-14.738c0-8.125 6.611-14.737 14.738-14.737z"></path><ellipse cx="177.294" cy="361.084" rx="7.816" ry="7.816" transform="matrix(.987 -.16 .16 .987 -55.55 33.062)"></ellipse><path d="m250.712 388.784c10.964 0 19.884-8.92 19.884-19.884s-8.92-19.884-19.884-19.884-19.884 8.92-19.884 19.884 8.921 19.884 19.884 19.884zm0-24.767c2.693 0 4.884 2.19 4.884 4.884s-2.191 4.884-4.884 4.884-4.884-2.19-4.884-4.884 2.192-4.884 4.884-4.884z"></path><path d="m358.929 426.815c10.964 0 19.884-8.92 19.884-19.884s-8.92-19.884-19.884-19.884-19.884 8.92-19.884 19.884 8.92 19.884 19.884 19.884zm0-24.767c2.693 0 4.884 2.19 4.884 4.884s-2.191 4.884-4.884 4.884-4.884-2.19-4.884-4.884 2.191-4.884 4.884-4.884z"></path><path d="m405.312 456.923c12.117 0 21.975-9.857 21.975-21.975s-9.858-21.976-21.975-21.976-21.975 9.858-21.975 21.976 9.857 21.975 21.975 21.975zm0-28.95c3.846 0 6.975 3.129 6.975 6.976 0 3.846-3.129 6.975-6.975 6.975s-6.975-3.129-6.975-6.975c-.001-3.847 3.128-6.976 6.975-6.976z"></path><path d="m501.488 442.256-80.385-165.088v-93.088c7.695-3.156 13.134-10.719 13.134-19.537v-24.224c0-11.643-9.472-21.115-21.115-21.115h-66.445v-60.25c0-4.143-3.358-7.5-7.5-7.5s-7.5 3.357-7.5 7.5v60.25h-15.377v-60.25c0-4.143-3.358-7.5-7.5-7.5s-7.5 3.357-7.5 7.5v61.25c-8.52 2.719-14.71 10.706-14.71 20.115v24.224c0 8.818 5.438 16.382 13.134 19.537v59.046c-12.563-15.717-27.93-29.125-45.328-39.39-5.696-3.36-9.235-9.526-9.235-16.092v-28.691c9.569-2.871 16.563-11.756 16.563-22.248v-24.543c0-8.194-4.268-15.404-10.694-19.54v-33.668c0-4.143-3.358-7.5-7.5-7.5s-7.5 3.357-7.5 7.5v29.981h-15.377v-29.981c0-4.143-3.358-7.5-7.5-7.5s-7.5 3.357-7.5 7.5v29.981h-17.877c-4.142 0-7.5 3.357-7.5 7.5s3.358 7.5 7.5 7.5h50.722c4.536 0 8.226 3.69 8.226 8.227v24.543c0 4.536-3.69 8.227-8.226 8.227h-.837-124.883-10.274c-4.536 0-8.226-3.69-8.226-8.227v-24.543c0-4.536 3.69-8.227 8.226-8.227h53.31c4.142 0 7.5-3.357 7.5-7.5s-3.358-7.5-7.5-7.5h-53.31c-12.807 0-23.226 10.419-23.226 23.227v24.543c0 12.808 10.419 23.227 23.226 23.227h2.774v22.501c0 7.037-3.818 13.36-9.964 16.504-26.795 13.705-49.374 34.475-65.294 60.065-16.377 26.323-24.971 56.707-24.852 87.864.344 90.156 73.964 164.034 164.111 164.687.412.003.819.004 1.231.004 21.178 0 41.743-3.964 60.865-11.528 8.671 7.465 19.598 11.528 31.299 11.528h195.478c16.723 0 32-8.465 40.867-22.644s9.79-31.621 2.469-46.657zm-82.251-301.937v24.224c0 3.372-2.743 6.115-6.115 6.115h-105.417c-3.372 0-6.115-2.743-6.115-6.115v-24.224c0-3.372 2.743-6.115 6.115-6.115h105.417c3.372 0 6.115 2.743 6.115 6.115zm41.793 321.637c.252.518.776 1.594-.164 3.098-.94 1.503-2.138 1.503-2.713 1.503h-174.272c1.045-.986 2.081-1.985 3.104-3.001 23.611-23.441 39.271-52.722 45.635-84.61h87.99zm-134.68-170.943c-3.128-8.845-7.014-17.423-11.626-25.635v-79.719h15v98.426zm-156.962 205.54c-81.968-.593-148.908-67.768-149.221-149.743-.217-57.001 31.194-108.545 81.977-134.518 11.186-5.722 18.134-17.163 18.134-29.859v-22.501h15v22.501c0 18.356-10.079 34.915-26.304 43.213-15.291 7.821-28.762 18.257-40.042 31.02-2.743 3.104-2.451 7.844.653 10.587 1.427 1.261 3.199 1.88 4.964 1.88 2.075 0 4.14-.856 5.623-2.533 10.032-11.351 22.021-20.636 35.633-27.598 21.264-10.876 34.474-32.552 34.474-56.568v-22.501h49.883v27.713c0 22.417 12.02 43.435 31.37 54.851 17.743 10.467 32.61 25.401 42.994 43.188 6.364 10.901 10.923 22.751 13.58 35.061h-235.216c2.183-10.164 5.651-20.026 10.346-29.247 1.879-3.691.411-8.207-3.281-10.087-3.689-1.878-8.207-.41-10.086 3.28-6.672 13.104-11.159 27.347-13.285 41.976-.078.365-.124.741-.147 1.124-.859 6.274-1.295 12.613-1.271 18.962.282 73.796 60.542 134.267 134.36 134.802l.984.003c36.147 0 70.129-14.076 95.688-39.635 25.561-25.561 39.637-59.548 39.637-95.7 0-6.284-.447-12.537-1.307-18.716-.026-.263-.064-.522-.116-.776-2.483-17.123-8.205-33.654-16.935-48.608-11.672-19.994-28.383-36.78-48.326-48.546-14.798-8.73-23.991-24.798-23.991-41.931v-27.713h15v27.713c0 11.85 6.366 22.966 16.613 29.012 22.144 13.063 40.699 31.703 53.659 53.902.065.111.125.226.189.337.008.014.016.028.024.042 13.206 22.775 20.191 48.795 20.191 75.284 0 8.017-.633 15.934-1.855 23.701-.009.045-.013.091-.022.136-4.951 31.284-19.621 60.095-42.543 82.851-28.641 28.433-66.63 43.965-107.028 43.641zm121.448-150.331c0 32.146-12.517 62.366-35.244 85.094-22.725 22.726-52.941 35.241-85.062 35.241l-.926-.003c-65.607-.475-119.187-54.243-119.438-119.858-.014-3.658.142-7.313.459-10.951h239.74c.303 3.475.471 6.97.471 10.477zm195.465 134.738c-6.107 9.766-16.63 15.597-28.149 15.597h-195.477c-5.519 0-10.782-1.316-15.468-3.787 6.325-3.321 12.449-7.062 18.334-11.213h192.612c6.409 0 12.033-3.116 15.432-8.551 3.396-5.435 3.736-11.855.932-17.616l-58.168-119.46c-1.814-3.726-6.304-5.273-10.026-3.46-3.724 1.813-5.273 6.303-3.46 10.026l10.444 21.449h-78.412c.619-5.847.942-11.76.942-17.724 0-11.274-1.162-22.47-3.414-33.415l11.545-23.711c.498-1.022.757-2.146.757-3.283v-100.154h31.38v100.154c0 1.138.259 2.261.757 3.283l11.986 24.616c1.299 2.667 3.969 4.219 6.749 4.219 1.102 0 2.221-.244 3.278-.759 3.724-1.813 5.273-6.303 3.46-10.026l-11.229-23.062v-98.426h15v93.238c0 1.138.259 2.261.757 3.283l81.142 166.643c5.039 10.359 4.404 22.372-1.704 32.139z"></path></g></g></symbol><symbol id="coronavirus" enable-background="new 0 0 512 512" viewBox="0 0 512 512" xmlns="http://www.w3.org/2000/svg"><g><path d="m374.25 24.789h16.254v32.508h-16.254z" fill="#ffd064" transform="matrix(.707 -.707 .707 .707 82.974 282.402)"></path><circle cx="370.883" cy="29.55" fill="#ffe07d" r="8.127"></circle><path d="m454.703 105.242h16.254v32.508h-16.254z" fill="#ffd064" transform="matrix(-.707 .707 -.707 -.707 876.011 -119.863)"></path><circle cx="474.323" cy="132.99" fill="#ffe07d" r="8.127"></circle><path d="m374.25 105.242h16.254v32.508h-16.254z" fill="#ffd064" transform="matrix(-.707 -.707 .707 -.707 566.847 477.788)"></path><circle cx="370.883" cy="132.99" fill="#ffe07d" r="8.127"></circle><path d="m454.703 24.789h16.254v32.508h-16.254z" fill="#ffd064" transform="matrix(.707 .707 -.707 .707 164.582 -315.249)"></path><circle cx="474.323" cy="29.55" fill="#ffe07d" r="8.127"></circle><path d="m357.587 65.016h16.254v32.508h-16.254z" fill="#ffd064" transform="matrix(0 -1 1 0 284.445 446.984)"></path><circle cx="349.46" cy="81.27" fill="#ffe07d" r="8.127"></circle><path d="m471.365 65.016h16.254v32.508h-16.254z" fill="#ffd064" transform="matrix(0 1 -1 0 560.762 -398.222)"></path><circle cx="495.746" cy="81.27" fill="#ffe07d" r="8.127"></circle><path d="m414.476 121.905h16.254v32.508h-16.254z" fill="#ffd064" transform="matrix(-1 0 0 -1 845.206 276.318)"></path><circle cx="422.603" cy="154.413" fill="#ffe07d" r="8.127"></circle><path d="m414.476 8.127h16.254v32.508h-16.254z" fill="#ffd064"></path><circle cx="422.603" cy="8.127" fill="#ffe07d" r="8.127"></circle><path d="m471.365 81.27c0 10.09-3.064 19.464-8.313 27.242-8.761 12.983-23.608 17.988-40.449 17.988-26.93 0-43.103-18.3-43.103-45.23 0-16.841 2.879-31.688 15.861-40.449 7.778-5.249 17.152-8.313 27.242-8.313 26.931 0 48.762 21.831 48.762 48.762z" fill="#ff8086"></path><path d="m435.81 116.825c-26.931 0-48.762-21.831-48.762-48.762 0-10.09 3.065-19.464 8.314-27.242-12.983 8.761-21.52 23.608-21.52 40.449 0 26.931 21.831 48.762 48.762 48.762 16.841 0 31.688-8.537 40.449-21.52-7.78 5.248-17.154 8.313-27.243 8.313z" fill="#e5646e"></path><path d="m67.048 18.471h16.254v40.635h-16.254z" fill="#ffd064" transform="matrix(-.866 .5 -.5 -.866 159.672 34.792)"></path><circle cx="65.016" cy="21.193" fill="#ffe07d" r="8.127"></circle><path d="m144.254 152.196h16.254v40.635h-16.254z" fill="#ffd064" transform="matrix(.866 -.5 .5 .866 -65.842 99.303)"></path><circle cx="162.54" cy="190.109" fill="#ffe07d" r="8.127"></circle><path d="m172.513 46.73h16.254v40.635h-16.254z" fill="#ffd064" transform="matrix(-.5 -.866 .866 -.5 212.896 257.011)"></path><circle cx="198.236" cy="56.889" fill="#ffe07d" r="8.127"></circle><path d="m38.788 123.937h16.254v40.635h-16.254z" fill="#ffd064" transform="matrix(.5 .866 -.866 .5 148.385 31.497)"></path><circle cx="29.32" cy="154.413" fill="#ffe07d" r="8.127"></circle><path d="m144.254 18.471h16.254v40.635h-16.254z" fill="#ffd064" transform="matrix(.866 .5 -.5 .866 39.809 -70.994)"></path><circle cx="162.54" cy="21.193" fill="#ffe07d" r="8.127"></circle><path d="m67.048 152.196h16.254v40.635h-16.254z" fill="#ffd064" transform="matrix(-.866 -.5 .5 -.866 54.021 359.502)"></path><circle cx="65.016" cy="190.109" fill="#ffe07d" r="8.127"></circle><path d="m38.788 46.73h16.254v40.635h-16.254z" fill="#ffd064" transform="matrix(.5 -.866 .866 .5 -34.607 74.154)"></path><circle cx="29.32" cy="56.889" fill="#ffe07d" r="8.127"></circle><path d="m172.513 123.937h16.254v40.635h-16.254z" fill="#ffd064" transform="matrix(-.5 .866 -.866 -.5 395.888 59.942)"></path><circle cx="198.236" cy="154.413" fill="#ffe07d" r="8.127"></circle><path d="m182.857 85.333h16.254v40.635h-16.254z" fill="#ffd064" transform="matrix(0 1 -1 0 296.635 -85.333)"></path><circle cx="211.302" cy="105.651" fill="#ffe07d" r="8.127"></circle><path d="m28.444 85.333h16.254v40.635h-16.254z" fill="#ffd064" transform="matrix(0 -1 1 0 -69.079 142.222)"></path><circle cx="16.254" cy="105.651" fill="#ffe07d" r="8.127"></circle><path d="m105.651 8.127h16.254v40.635h-16.254z" fill="#ffd064"></path><circle cx="113.778" cy="8.127" fill="#ffe07d" r="8.127"></circle><path d="m105.651 162.54h16.254v40.635h-16.254z" fill="#ffd064" transform="matrix(-1 0 0 -1 227.556 365.714)"></path><circle cx="113.778" cy="203.175" fill="#ffe07d" r="8.127"></circle><path d="m178.794 105.651c0 14.314-4.625 27.547-12.463 38.287-11.824 16.202-30.959 23.562-52.553 23.562-35.907 0-60.778-25.942-60.778-61.849 0-21.581 6.276-40.706 22.462-52.531 10.745-7.851 23.989-12.484 38.316-12.484 35.907-.001 65.016 29.108 65.016 65.015z" fill="#ff8086"></path><path d="m128 156.444c-35.907 0-65.016-29.109-65.016-65.016 0-14.322 4.632-27.566 12.478-38.309-16.191 11.825-26.7 30.946-26.7 52.531 0 35.907 29.109 65.016 65.016 65.016 21.585 0 40.727-10.538 52.553-26.729-10.744 7.846-24.009 12.507-38.331 12.507z" fill="#e5646e"></path><g><g><path d="m275.452 255.262c-3.587 0-6.873-2.397-7.841-6.028l-6.31-23.548c-1.159-4.333 1.413-8.79 5.746-9.952 4.325-1.155 8.794 1.413 9.952 5.746l6.31 23.548c1.159 4.333-1.413 8.79-5.746 9.952-.706.191-1.412.282-2.111.282z" fill="#c3ddff"></path></g><g><path d="m332.238 467.214c-3.587 0-6.873-2.397-7.841-6.028l-6.31-23.548c-1.159-4.333 1.413-8.79 5.746-9.952 4.325-1.159 8.794 1.413 9.952 5.746l6.31 23.548c1.159 4.333-1.413 8.79-5.746 9.952-.706.191-1.413.282-2.111.282z" fill="#c3ddff"></path></g><g><g><path d="m394.889 324.222c-3.587 0-6.873-2.397-7.841-6.028-1.159-4.337 1.413-8.794 5.746-9.952l23.556-6.31c4.349-1.151 8.802 1.409 9.952 5.746 1.159 4.337-1.413 8.794-5.746 9.952l-23.556 6.31c-.706.191-1.413.282-2.111.282z" fill="#c3ddff"></path></g><g><path d="m182.937 381.016c-3.587 0-6.873-2.397-7.841-6.028-1.159-4.337 1.413-8.794 5.746-9.952l23.556-6.31c4.349-1.159 8.794 1.413 9.952 5.746 1.159 4.337-1.413 8.794-5.746 9.952l-23.556 6.31c-.707.191-1.413.282-2.111.282z" fill="#c3ddff"></path></g></g><g><g><path d="m206.508 324.222c-.698 0-1.405-.091-2.111-.282l-23.556-6.31c-4.333-1.159-6.905-5.615-5.746-9.952s5.627-6.893 9.952-5.746l23.556 6.31c4.333 1.159 6.905 5.615 5.746 9.952-.968 3.631-4.254 6.028-7.841 6.028z" fill="#c3ddff"></path></g><g><path d="m418.46 381.016c-.698 0-1.405-.091-2.111-.282l-23.556-6.31c-4.333-1.159-6.905-5.615-5.746-9.952 1.159-4.333 5.627-6.901 9.952-5.746l23.556 6.31c4.333 1.159 6.905 5.615 5.746 9.952-.968 3.631-4.253 6.028-7.841 6.028z" fill="#c3ddff"></path></g><g><g><path d="m325.944 255.262c-.698 0-1.405-.091-2.111-.282-4.333-1.163-6.905-5.619-5.746-9.952l6.31-23.548c1.159-4.333 5.619-6.897 9.952-5.746 4.333 1.163 6.905 5.619 5.746 9.952l-6.31 23.548c-.968 3.631-4.253 6.028-7.841 6.028z" fill="#c3ddff"></path></g><g><path d="m269.159 467.214c-.698 0-1.405-.091-2.111-.282-4.333-1.163-6.905-5.619-5.746-9.952l6.31-23.548c1.159-4.333 5.619-6.901 9.952-5.746 4.333 1.163 6.905 5.619 5.746 9.952l-6.31 23.548c-.968 3.631-4.254 6.028-7.841 6.028z" fill="#c3ddff"></path></g></g></g><g><g><path d="m369.659 280.5c-2.079 0-4.159-.794-5.746-2.381-3.175-3.175-3.175-8.317 0-11.492l17.238-17.238c3.175-3.175 8.317-3.175 11.492 0s3.175 8.317 0 11.492l-17.238 17.238c-1.588 1.587-3.667 2.381-5.746 2.381z" fill="#c3ddff"></path></g><g><path d="m214.5 435.659c-2.079 0-4.159-.794-5.746-2.381-3.175-3.175-3.175-8.317 0-11.492l17.238-17.238c3.175-3.175 8.317-3.175 11.492 0s3.175 8.317 0 11.492l-17.238 17.238c-1.587 1.587-3.667 2.381-5.746 2.381z" fill="#c3ddff"></path></g><g><g><path d="m231.738 280.5c-2.079 0-4.159-.794-5.746-2.381l-17.238-17.238c-3.175-3.175-3.175-8.317 0-11.492s8.317-3.175 11.492 0l17.238 17.238c3.175 3.175 3.175 8.317 0 11.492-1.587 1.587-3.667 2.381-5.746 2.381z" fill="#c3ddff"></path></g><g><path d="m386.897 435.659c-2.079 0-4.159-.794-5.746-2.381l-17.238-17.238c-3.175-3.175-3.175-8.317 0-11.492s8.317-3.175 11.492 0l17.238 17.238c3.175 3.175 3.175 8.317 0 11.492-1.587 1.587-3.667 2.381-5.746 2.381z" fill="#c3ddff"></path></g></g></g></g><path d="m231.619 211.38h16.254v48.762h-16.254z" fill="#ffd064" transform="matrix(-.866 .5 -.5 -.866 565.253 320.063)"></path><path d="m353.524 422.525h16.254v48.762h-16.254z" fill="#ffd064" transform="matrix(-.866 .5 -.5 -.866 898.303 653.113)"></path><circle cx="377.905" cy="475.059" fill="#ffe07d" r="16.254"></circle><circle cx="223.492" cy="207.608" fill="#ffe07d" r="16.254"></circle><path d="m398.144 256h16.254v48.762h-16.254z" fill="#ffd064" transform="matrix(-.5 -.866 .866 -.5 366.59 772.413)"></path><path d="m186.999 377.905h16.254v48.762h-16.254z" fill="#ffd064" transform="matrix(-.5 -.866 .866 -.5 -55.701 772.413)"></path><circle cx="166.973" cy="418.54" fill="#ffe07d" r="16.254"></circle><circle cx="434.424" cy="264.127" fill="#ffe07d" r="16.254"></circle><path d="m353.524 211.38h16.254v48.762h-16.254z" fill="#ffd064" transform="matrix(.866 .5 -.5 .866 166.332 -149.24)"></path><path d="m231.619 422.525h16.254v48.762h-16.254z" fill="#ffd064" transform="matrix(.866 .5 -.5 .866 255.573 -59.999)"></path><circle cx="223.492" cy="475.059" fill="#ffe07d" r="16.254"></circle><circle cx="377.905" cy="207.608" fill="#ffe07d" r="16.254"></circle><path d="m186.999 256h16.254v48.762h-16.254z" fill="#ffd064" transform="matrix(.5 -.866 .866 .5 -145.254 309.174)"></path><path d="m398.144 377.905h16.254v48.762h-16.254z" fill="#ffd064" transform="matrix(.5 -.866 .866 .5 -145.254 552.984)"></path><circle cx="434.424" cy="418.54" fill="#ffe07d" r="16.254"></circle><circle cx="166.973" cy="264.127" fill="#ffe07d" r="16.254"></circle><path d="m414.476 316.952h16.254v48.762h-16.254z" fill="#ffd064" transform="matrix(0 1 -1 0 763.937 -81.27)"></path><path d="m170.667 316.952h16.254v48.762h-16.254z" fill="#ffd064" transform="matrix(0 1 -1 0 520.127 162.54)"></path><circle cx="146.286" cy="341.333" fill="#ffe07d" r="16.254"></circle><circle cx="455.111" cy="341.333" fill="#ffe07d" r="16.254"></circle><path d="m292.571 195.048h16.254v48.762h-16.254z" fill="#ffd064"></path><path d="m292.571 438.857h16.254v48.762h-16.254z" fill="#ffd064"></path><path d="m200.5 341.333c0-33.316 9.969-63.03 34.062-82.395 18.103-14.55 41.103-23.256 66.136-23.256 58.349 0 105.651 47.301 105.651 105.651 0 25.029-8.703 48.025-23.249 66.127-19.364 24.099-49.082 34.79-82.402 34.79-58.349 0-100.198-42.567-100.198-100.917z" fill="#ff8086"></path><path d="m316.952 430.73c-58.349 0-105.651-47.302-105.651-105.651 0-25.032 8.712-48.037 23.26-66.141-24.095 19.364-39.514 49.078-39.514 82.395 0 58.349 47.302 105.651 105.651 105.651 33.317 0 63.038-15.429 82.402-39.524-18.103 14.549-41.115 23.27-66.148 23.27z" fill="#e5646e"></path><g fill="#ffe07d"><circle cx="300.698" cy="495.746" r="16.254"></circle><circle cx="300.698" cy="186.921" r="16.254"></circle><circle cx="341.333" cy="300.698" r="16.254"></circle><circle cx="300.698" cy="341.333" r="16.254"></circle></g><g><path d="m113.778 89.397c-4.492 0-8.127-3.639-8.127-8.127v-8.127c0-4.488 3.635-8.127 8.127-8.127s8.127 3.639 8.127 8.127v8.127c0 4.488-3.635 8.127-8.127 8.127z" fill="#ffe07d"></path></g><g><path d="m113.778 146.286c-4.492 0-8.127-3.639-8.127-8.127v-8.127c0-4.488 3.635-8.127 8.127-8.127s8.127 3.639 8.127 8.127v8.127c0 4.488-3.635 8.127-8.127 8.127z" fill="#ffe07d"></path></g><g><path d="m146.286 113.778h-8.127c-4.492 0-8.127-3.639-8.127-8.127s3.635-8.127 8.127-8.127h8.127c4.492 0 8.127 3.639 8.127 8.127s-3.635 8.127-8.127 8.127z" fill="#ffe07d"></path></g><g><path d="m89.397 113.778h-8.127c-4.492 0-8.127-3.639-8.127-8.127s3.635-8.127 8.127-8.127h8.127c4.492 0 8.127 3.639 8.127 8.127s-3.635 8.127-8.127 8.127z" fill="#ffe07d"></path></g><circle cx="260.064" cy="300.698" fill="#ffe07d" r="16.254"></circle><circle cx="341.333" cy="381.968" fill="#ffe07d" r="16.254"></circle><circle cx="260.064" cy="381.968" fill="#ffe07d" r="16.254"></circle><circle cx="300.698" cy="268.19" fill="#c3ddff" r="8.127"></circle><circle cx="300.698" cy="414.476" fill="#c3ddff" r="8.127"></circle><circle cx="373.841" cy="341.333" fill="#c3ddff" r="8.127"></circle><circle cx="227.556" cy="341.333" fill="#c3ddff" r="8.127"></circle><circle cx="438.857" cy="73.143" fill="#ffe07d" r="8.127"></circle><circle cx="406.349" cy="73.143" fill="#ffe07d" r="8.127"></circle><circle cx="422.603" cy="97.524" fill="#ffe07d" r="8.127"></circle></g></symbol><symbol id="clock" enable-background="new 0 0 511.721 511.721" viewBox="0 0 511.721 511.721" xmlns="http://www.w3.org/2000/svg"><g><g><circle cx="255.86" cy="255.86" fill="#9cf8d2" r="248.36"></circle><path d="m75.449 255.86c0-125.639 93.312-229.487 214.401-246.054-11.11-1.52-22.463-2.306-33.99-2.306-137.165 0-248.36 111.195-248.36 248.36s111.195 248.36 248.36 248.36c11.527 0 22.893-.788 34.003-2.308-121.089-16.567-214.414-120.413-214.414-246.052z" fill="#6cf5c2"></path><g><g><circle cx="255.86" cy="255.86" fill="#f9f7f8" r="173.47"></circle></g></g><g fill="#9cf8d2"><path d="m253.624 232.411-49.006-49.006c-5.857-5.857-15.355-5.857-21.213 0s-5.858 15.355 0 21.213l49.006 49.006 12.247 11.075 20.921-19.897z"></path><path d="m278.116 248.15 47.937 17.875c7.762 2.895 11.708 11.533 8.814 19.296-2.25 6.034-7.974 9.763-14.057 9.763-1.741 0-3.512-.305-5.239-.949l-47.945-17.878-28.445-11.558 17.518-22.868z"></path></g><circle cx="255.86" cy="255.86" fill="#baafb9" r="23.558"></circle><g><path d="m255.863 52.4c112.37 0 203.47 91.1 203.47 203.47s-91.1 203.47-203.47 203.47-203.47-91.1-203.47-203.47 91.1-203.47 203.47-203.47zm173.47 203.47c0-95.65-77.82-173.47-173.47-173.47s-173.47 77.82-173.47 173.47 77.82 173.47 173.47 173.47 173.47-77.82 173.47-173.47z" fill="#cffce9"></path></g><path d="m140.652 423.601c-40.481-44.183-65.203-103.091-65.203-167.74s24.716-123.546 65.197-167.729c-53.296 36.688-88.256 98.136-88.256 167.728s34.966 131.052 88.262 167.741z" fill="#9cf8d2"></path></g><g><path d="m436.781 74.939c-48.326-48.325-112.578-74.939-180.921-74.939s-132.594 26.614-180.92 74.939c-48.326 48.327-74.94 112.579-74.94 180.921s26.614 132.595 74.94 180.921c48.326 48.325 112.578 74.939 180.92 74.939s132.595-26.614 180.92-74.939c48.326-48.326 74.94-112.578 74.94-180.921s-26.614-132.594-74.939-180.921zm-10.607 351.236c-45.493 45.492-105.978 70.546-170.314 70.546s-124.821-25.054-170.314-70.546c-45.492-45.493-70.546-105.979-70.546-170.315s25.054-124.821 70.546-170.314c45.493-45.492 105.978-70.546 170.314-70.546s124.821 25.054 170.314 70.546c45.493 45.493 70.546 105.979 70.546 170.314s-25.053 124.822-70.546 170.315z"></path><path d="m255.86 44.894c-116.328 0-210.967 94.64-210.967 210.967s94.64 210.967 210.967 210.967c78.955 0 150.686-43.539 187.202-113.626 1.914-3.674.487-8.203-3.186-10.117-3.672-1.914-8.203-.486-10.117 3.186-33.922 65.11-100.557 105.558-173.899 105.558-108.057 0-195.967-87.91-195.967-195.967s87.911-195.968 195.967-195.968 195.967 87.91 195.967 195.967c0 21.203-3.373 42.07-10.026 62.024-1.311 3.93.813 8.177 4.743 9.487 3.928 1.305 8.177-.813 9.487-4.743 7.164-21.486 10.796-43.95 10.796-66.769.001-116.327-94.639-210.966-210.967-210.966z"></path><path d="m199.315 188.709 11.188 11.188c2.929 2.928 7.678 2.929 10.606-.001 2.929-2.929 2.929-7.678 0-10.606l-11.188-11.188c-8.773-8.772-23.047-8.772-31.819 0-4.25 4.25-6.59 9.9-6.59 15.91s2.341 11.66 6.59 15.91l46.72 46.72c.417 16.765 14.175 30.277 31.038 30.277.171 0 .339-.01.509-.013l23.9 89.718c.894 3.355 3.926 5.571 7.242 5.571.639 0 1.289-.082 1.936-.255 4.002-1.066 6.383-5.175 5.316-9.178l-23.183-87.027 41.369 15.425c2.53.944 5.174 1.423 7.861 1.423 9.345 0 17.817-5.884 21.084-14.643 4.334-11.624-1.596-24.608-13.221-28.943l-44.901-16.743c-4.945-10.104-15.216-17.137-27.132-17.434l-12.931-12.931c-2.929-2.928-7.678-2.928-10.606 0-2.929 2.93-2.929 7.678 0 10.607l6.754 6.754c-4.338 2.619-7.987 6.268-10.606 10.606l-40.544-40.544c-1.417-1.416-2.197-3.3-2.197-5.303s.78-3.887 2.197-5.303c2.926-2.923 7.684-2.923 10.608.003zm128.525 93.991c-1.089 2.921-3.914 4.884-7.029 4.884-.89 0-1.771-.16-2.618-.477l-36.727-13.695c2.811-4.088 4.667-8.879 5.25-14.051l36.717 13.691c3.875 1.446 5.852 5.774 4.407 9.648zm-55.922-26.84c0 8.854-7.204 16.059-16.058 16.059s-16.058-7.204-16.058-16.059 7.204-16.059 16.058-16.059 16.058 7.205 16.058 16.059z"></path><path d="m151.209 358.616c-2.929-2.928-7.678-2.928-10.606 0l-8.125 8.125c-10.305-11.456-19.022-24.325-25.844-38.29-1.818-3.722-6.309-5.266-10.031-3.447-3.722 1.818-5.265 6.31-3.447 10.031 14.673 30.036 37.354 55.44 65.59 73.469 29.023 18.53 62.605 28.324 97.114 28.324 99.786 0 180.967-81.182 180.967-180.968s-81.181-180.967-180.967-180.967-180.967 81.181-180.967 180.967c0 16.198 2.165 32.299 6.435 47.856 1.096 3.994 5.22 6.342 9.218 5.247 3.994-1.097 6.344-5.223 5.247-9.218-3.373-12.29-5.305-24.953-5.777-37.725h11.685c4.142 0 7.5-3.357 7.5-7.5s-3.358-7.5-7.5-7.5h-11.572c2.113-40.063 18.505-76.399 44.161-104.018l8.206 8.207c1.464 1.464 3.384 2.196 5.303 2.196s3.839-.732 5.303-2.196c2.929-2.93 2.929-7.678 0-10.607l-8.124-8.124c27.987-25.177 64.553-40.987 104.72-42.46v11.683c0 4.143 3.358 7.5 7.5 7.5s7.5-3.357 7.5-7.5v-11.572c40.064 2.113 76.399 18.505 104.018 44.162l-8.206 8.206c-2.929 2.93-2.929 7.678 0 10.607 1.464 1.464 3.384 2.196 5.303 2.196s3.839-.732 5.303-2.196l8.124-8.125c25.177 27.988 40.986 64.553 42.459 104.719h-11.679c-4.142 0-7.5 3.357-7.5 7.5s3.358 7.5 7.5 7.5h11.572c-2.113 40.063-18.505 76.399-44.161 104.018l-8.206-8.207c-2.929-2.928-7.678-2.928-10.606 0-2.929 2.93-2.929 7.678 0 10.607l8.124 8.124c-27.987 25.177-64.553 40.987-104.72 42.46v-11.68c0-4.143-3.358-7.5-7.5-7.5s-7.5 3.357-7.5 7.5v11.548c-28.517-1.513-56.08-10.306-80.203-25.707-8.519-5.439-16.474-11.624-23.81-18.436l8.202-8.202c2.927-2.929 2.927-7.677-.003-10.607z"></path></g></g></symbol><symbol id="cough" enable-background="new 0 0 64 64" viewBox="0 0 64 64" xmlns="http://www.w3.org/2000/svg"><g><g><g><path d="m62 23.51c0 3.39-.6 6.73-1.73 9.86-1.14 3.14-2.82 6.09-4.99 8.69l-3.28 3.94-9-9 .55-.55c1.57-1.57 2.45-3.69 2.45-5.91v-.07c0-1.92-1.55-3.47-3.47-3.47h-.05c-.95 0-1.85.37-2.52 1.04-.48.48-.96.96-.96.96-1.28-.64-2.41-1.52-3.33-2.58s-1.63-2.3-2.08-3.66l-.76-2.26c-.49-1.49-1.89-2.5-3.46-2.5h-.05c-.86 0-1.68.28-2.34.81-.51.41-1.15.93-1.77 1.42-1.43 1.15-3.2 1.77-5.04 1.77h-.17-.27c-5.39 0-9.73-4.34-9.73-9.7 0-.1 0-.2 0-.3 0-5.52 4.48-10 10-10 .66 0 1.32.11 1.95.32l3.15 1.05c1.26.42 2.58.63 3.9.63s2.64-.21 3.9-.63l.79-.27c2.19-.73 4.49-1.1 6.8-1.1 5.94 0 11.32 2.41 15.21 6.3s6.3 9.27 6.3 15.21z" fill="#fcd770"></path></g><g><path d="m56.74 61.22.26.78h-15l.26-.78c.52-1.56 1.51-2.86 2.78-3.78s2.82-1.44 4.46-1.44c.87 0 1.71.15 2.5.43 2.19.75 3.98 2.5 4.74 4.79z" fill="#ecc19c"></path></g><g><path d="m49.5 56c-1.64 0-3.19.52-4.46 1.44s-2.26 2.22-2.78 3.78l-.26.78h-10c.65-1.95 1.9-3.64 3.57-4.84l2.75-1.96c1.06-.75 1.68-1.97 1.68-3.26v-1.27l-5.18 1.15c-.55.12-1.1.18-1.66.18-3.12 0-5.92-1.9-7.08-4.79l-.08-.21.59-.59c.9-.9 1.41-2.13 1.41-3.41h-5l-1-4c-1.32 0-2.61-.31-3.79-.89l-.21-.11.46-1.85c.36-1.43.54-2.89.54-4.37v-3.62c0-2.09.34-4.17 1-6.16h.17c1.84 0 3.61-.62 5.04-1.77.62-.49 1.26-1.01 1.77-1.42.66-.53 1.48-.81 2.34-.81h.05c1.57 0 2.97 1.01 3.46 2.5l.76 2.26c.45 1.36 1.16 2.6 2.08 3.66s2.05 1.94 3.33 2.58c0 0 .48-.48.96-.96.67-.67 1.57-1.04 2.52-1.04h.05c1.92 0 3.47 1.55 3.47 3.47v.07c0 2.22-.88 4.34-2.45 5.91l-.55.55 9 9v10.42.01c-.79-.28-1.63-.43-2.5-.43z" fill="#f0d0b4"></path></g><g><path d="m23 53v6l-3.3 2.47c-.45.35-1.01.53-1.58.53-.58 0-1.12-.24-1.5-.62s-.62-.92-.62-1.5c0-.56.22-1.1.62-1.5l.76-.76c.4-.4.62-.94.62-1.5 0-.58-.24-1.12-.62-1.5s-.92-.62-1.5-.62h-.14c-.48 0-.94.16-1.32.46l-3.36 2.69c-.66.53-1.55.69-2.35.42-1.02-.34-1.71-1.29-1.71-2.37 0-.76.34-1.48.94-1.95l3.3-2.64c.48-.39.76-.97.76-1.58 0-.56-.23-1.07-.6-1.43-.36-.37-.87-.6-1.43-.6h-5.97c-1.1 0-2-.9-2-2 0-.55.22-1.05.59-1.41.36-.37.86-.59 1.41-.59h6.15c1.02 0 1.85-.83 1.85-1.85 0-.71-.4-1.35-1.02-1.66l-1.57-.79c-.87-.43-1.41-1.31-1.41-2.27 0-.67.27-1.28.71-1.72s1.05-.71 1.72-.71c.37 0 .75.09 1.08.26l3.49 1.74v8c0 1.2.53 2.27 1.36 3 .71.62 1.63 1 2.64 1 1.1 0 2.1.45 2.83 1.17.72.73 1.17 1.73 1.17 2.83z" fill="#ccd1d9"></path></g></g><g><path d="m27.707 28.707-1.414-1.414-3.981 3.981 5.241 2.621.894-1.79-2.759-1.379z"></path><path d="m53 55.764v-9.402l3.052-3.663c4.481-5.377 6.948-12.191 6.948-19.189 0-12.412-10.098-22.51-22.509-22.51-2.422 0-4.817.389-7.119 1.155l-.791.264c-2.314.771-4.847.771-7.163 0l-3.153-1.051c-.73-.244-1.493-.368-2.265-.368-6.065 0-11 4.935-11 11v.3c0 5.548 4.258 10.12 9.686 10.647-.449 1.702-.686 3.449-.686 5.215v3.622c0 1.388-.171 2.775-.508 4.123l-.657 2.629.929.464c1.073.536 2.251.865 3.447.967l1.008 4.033h4.646c-.174.641-.514 1.234-.986 1.707l-1.052 1.053.327.817c1.318 3.294 4.461 5.423 8.009 5.423.63 0 1.26-.069 1.871-.205l3.966-.881v.028c0 .967-.47 1.879-1.256 2.441l-2.752 1.966c-1.857 1.326-3.22 3.171-3.941 5.335l-.438 1.316h27.774l-.699-2.099c-.785-2.354-2.521-4.173-4.688-5.137zm-42-43.464v-.3c0-4.963 4.038-9 9-9 .557 0 1.106.089 1.633.266l3.153 1.05c2.724.908 5.704.908 8.428 0l.791-.263c2.096-.699 4.278-1.053 6.486-1.053 11.309 0 20.509 9.2 20.509 20.51 0 6.531-2.303 12.892-6.484 17.908l-2.583 3.101-7.52-7.521c1.67-1.747 2.588-4.034 2.59-6.527.001-1.194-.464-2.317-1.309-3.161-.845-.845-1.967-1.31-3.217-1.31-1.22 0-2.364.472-3.222 1.33l-.434.435c-2.025-1.2-3.535-3.067-4.286-5.324l-.752-2.257c-.635-1.905-2.41-3.184-4.464-3.184-1.092 0-2.116.357-2.961 1.033l-1.77 1.415c-1.25 1.001-2.818 1.552-4.417 1.552h-.438c-4.816 0-8.733-3.903-8.733-8.7zm30.279 48.7h-7.77c.629-1.195 1.527-2.226 2.645-3.024l2.752-1.966c1.311-.937 2.094-2.458 2.094-4.069v-.472l2.217-.493-.434-1.953-8.183 1.82c-.47.104-.953.157-1.437.157-2.58 0-4.882-1.466-5.979-3.77l.109-.109c1.085-1.085 1.707-2.587 1.707-4.121v-1h-5.219l-1-4h-.781c-.966 0-1.934-.191-2.83-.558l.263-1.051c.376-1.505.567-3.055.567-4.607v-3.622c0-1.76.265-3.5.758-5.187 1.845-.121 3.63-.805 5.079-1.964l1.771-1.416c.486-.389 1.078-.595 1.757-.595 1.146 0 2.158.729 2.52 1.816l.752 2.257c.996 2.989 3.096 5.412 5.915 6.821l.645.322 1.473-1.474c.48-.478 1.122-.742 1.863-.742.66 0 1.28.257 1.747.724.466.467.723 1.086.723 1.815-.001 1.965-.767 3.812-2.156 5.2l-1.261 1.261 9.414 9.414v8.726c-.49-.086-.989-.14-1.5-.14-3.721 0-7.012 2.372-8.188 5.901zm2.134 0c1.041-2.414 3.42-4 6.087-4s5.046 1.586 6.087 4z"></path><path d="m19.103 60.673c-.285.214-.624.327-.982.327-.618 0-1.121-.503-1.121-1.121 0-.295.12-.584.328-.793l.758-.758c.581-.581.914-1.385.914-2.207 0-1.721-1.4-3.121-3.121-3.121h-.135c-.706 0-1.398.243-1.95.684l-3.358 2.687c-.398.318-.925.412-1.413.251-.611-.205-1.023-.776-1.023-1.422 0-.457.205-.884.562-1.169l3.303-2.643c.721-.576 1.135-1.438 1.135-2.362 0-1.669-1.357-3.026-3.026-3.026h-5.974c-.551 0-1-.448-1-1s.449-1 1-1h6.146c1.574 0 2.854-1.28 2.854-2.854 0-1.087-.604-2.065-1.578-2.553l-1.569-.784c-.526-.263-.853-.793-.853-1.382 0-.787.64-1.427 1.427-1.427.22 0 .441.052.638.15l3.487 1.744.895-1.789-3.489-1.745c-.474-.235-1.003-.36-1.531-.36-1.889 0-3.427 1.537-3.427 3.427 0 1.353.751 2.567 1.959 3.171l1.568.784c.292.145.473.438.473.764 0 .47-.383.854-.854.854h-6.146c-1.654 0-3 1.346-3 3s1.346 3 3 3h5.974c.566 0 1.026.46 1.026 1.026 0 .313-.141.605-.385.801l-3.303 2.643c-.834.668-1.312 1.663-1.312 2.73 0 1.508.961 2.841 2.396 3.319 1.13.376 2.359.156 3.29-.587l3.358-2.687c.198-.158.447-.245.7-.245h.135c.618 0 1.121.503 1.121 1.121 0 .295-.12.584-.328.793l-.758.758c-.581.581-.914 1.385-.914 2.207 0 1.721 1.4 3.121 3.121 3.121.782 0 1.558-.259 2.182-.728l3.297-2.472-1.2-1.6z"></path><path d="m15 46h2v2h-2z"></path><path d="m17 42h2v2h-2z"></path><path d="m19 48h2v2h-2z"></path><path d="m21 52h2v2h-2z"></path></g></g></symbol><symbol id="menu" version="1.1" xmlns="http://www.w3.org/2000/svg" xmlns:xlink="http://www.w3.org/1999/xlink" x="0px" y="0px" viewBox="0 0 512 512" style="enable-background:new 0 0 512 512;" xml:space="preserve"><g><g><path d="M492,236H20c-11.046,0-20,8.954-20,20c0,11.046,8.954,20,20,20h472c11.046,0,20-8.954,20-20S503.046,236,492,236z"></path></g></g><g><g><path d="M492,76H20C8.954,76,0,84.954,0,96s8.954,20,20,20h472c11.046,0,20-8.954,20-20S503.046,76,492,76z"></path></g></g><g><g><path d="M492,396H20c-11.046,0-20,8.954-20,20c0,11.046,8.954,20,20,20h472c11.046,0,20-8.954,20-20
			C512,404.954,503.046,396,492,396z"></path></g></g></symbol><symbol id="sick" xmlns="http://www.w3.org/2000/svg" viewBox="0 0 64 64"><g><path d="M36,32v5a4,4,0,0,1-8,0V32Z" style="fill:#ffc477"></path><path d="M52,49.35V61H12V49.35a9.989,9.989,0,0,1,7.02-9.54L28,37a4,4,0,0,0,8,0l8.98,2.81A9.927,9.927,0,0,1,51,45.01,9.81,9.81,0,0,1,52,49.35Z" style="fill:#3d9ae2"></path><path d="M61,54a6,6,0,0,1-6,6,5.857,5.857,0,0,1-3-.81,5.982,5.982,0,0,1-1-9.65V34a4,4,0,0,1,8,0V49.54A6,6,0,0,1,61,54Z" style="fill:#ff5023"></path><circle cx="55" cy="54" r="2" style="fill:#e6e7e8"></circle><path d="M53.29,16.72a2.012,2.012,0,0,1,1.62,2.32,1.992,1.992,0,0,1-2.32,1.62C51.5,20.47,49,18,49,18S52.2,16.53,53.29,16.72Z" style="fill:#78b9eb"></path><path d="M53.6,8.14a2,2,0,0,1-.25,2.82C52.5,11.67,49,12,49,12s.93-3.39,1.78-4.1A2.008,2.008,0,0,1,53.6,8.14Z" style="fill:#78b9eb"></path><path d="M45.12,17.88A3,3,0,0,1,43,23H42V17h1A2.993,2.993,0,0,1,45.12,17.88Z" style="fill:#ffb655"></path><path d="M42,13v2H39l-3-3-4,3H22V13a10,10,0,0,1,20,0Z" style="fill:#57565c"></path><path d="M22,17v6H21a3,3,0,0,1,0-6Z" style="fill:#ffb655"></path><path d="M15.87,4.07C16.78,4.7,18,8,18,8s-3.52-.02-4.42-.66a2,2,0,0,1,2.29-3.27Z" style="fill:#78b9eb"></path><path d="M17,13s-1.22,3.3-2.13,3.93a2,2,0,0,1-2.29-3.27C13.48,13.02,17,13,17,13Z" style="fill:#78b9eb"></path><path d="M36,32v2.16a9.944,9.944,0,0,1-8,0V32Z" style="fill:#ffb655"></path><path d="M42,17v6a10,10,0,0,1-20,0V15H32l4-3,3,3h3Z" style="fill:#ffc477"></path><path d="M46,50H44V60H20V50H18V60H13V49.352a8.961,8.961,0,0,1,6.315-8.59L27.193,38.3a4.973,4.973,0,0,0,9.614,0l7.878,2.462A8.946,8.946,0,0,1,47.4,42.151l1.2-1.6a10.959,10.959,0,0,0-3.321-1.7L37,36.265V32.786A11.008,11.008,0,0,0,42.949,24H43a4,4,0,0,0,0-8V13a11,11,0,0,0-22,0v3a4,4,0,0,0,0,8h.051A11.008,11.008,0,0,0,27,32.786v3.479l-8.28,2.588A10.952,10.952,0,0,0,11,49.352V61a1,1,0,0,0,1,1H49V60H46ZM45,20a2,2,0,0,1-2,2V18A2,2,0,0,1,45,20ZM32,4a9.01,9.01,0,0,1,9,9v1H39.414l-2.707-2.707A1,1,0,0,0,35.4,11.2L31.667,14H23V13A9.01,9.01,0,0,1,32,4ZM19,20a2,2,0,0,1,2-2v4A2,2,0,0,1,19,20Zm4,3V16h9a1,1,0,0,0,.6-.2l3.306-2.48,2.387,2.387A1,1,0,0,0,39,16h2v7a9,9,0,0,1-18,0Zm9,11a10.966,10.966,0,0,0,3-.426V37a3,3,0,0,1-6,0V33.574A10.966,10.966,0,0,0,32,34Z"></path><path d="M29.882,21.472a1,1,0,0,0-.05-1.027l-2-3-1.664,1.11L27.132,20H25v2h4A1,1,0,0,0,29.882,21.472Z"></path><path d="M35,22h4V20H36.868l.964-1.445-1.664-1.11-2,3A1,1,0,0,0,35,22Z"></path><path d="M34,28h2a4,4,0,0,0-8,0h2a2,2,0,0,1,4,0Z"></path><path d="M49,13c.031,0,.062,0,.094,0,1.146-.108,3.92-.447,4.9-1.269a3,3,0,1,0-3.856-4.6c-.98.822-1.8,3.494-2.1,4.6A1,1,0,0,0,49,13Zm2.422-4.337a1,1,0,1,1,1.286,1.531,7.5,7.5,0,0,1-2.288.615A7.44,7.44,0,0,1,51.422,8.663Z"></path><path d="M53.46,15.74c-1.258-.22-3.83.871-4.877,1.351a1,1,0,0,0-.285,1.62c.819.81,2.861,2.716,4.12,2.938A3,3,0,1,0,53.46,15.74Zm-.693,3.939a7.478,7.478,0,0,1-1.942-1.357,7.591,7.591,0,0,1,2.287-.612,1,1,0,1,1-.345,1.969Z"></path><path d="M13,8.163h0c1.048.732,3.839.829,4.99.836H18a1,1,0,0,0,.937-1.348c-.4-1.08-1.446-3.671-2.493-4.4A3,3,0,0,0,13,8.163Zm.9-3.031a1,1,0,0,1,.646-.411.985.985,0,0,1,.746.165,7.461,7.461,0,0,1,1.185,2.051,7.457,7.457,0,0,1-2.333-.413A1,1,0,0,1,13.9,5.132Z"></path><path d="M13.2,18.249a3.052,3.052,0,0,0,.527.046,2.971,2.971,0,0,0,1.714-.543c1.048-.733,2.094-3.324,2.494-4.4A1,1,0,0,0,17,12h-.007c-1.151.007-3.942.1-4.99.836h0a3,3,0,0,0,1.2,5.412Zm-.054-3.773a7.474,7.474,0,0,1,2.333-.413A7.434,7.434,0,0,1,14.3,16.114a1,1,0,0,1-1.148-1.638Z"></path><path d="M56,51.184V35H54V51.184a3,3,0,1,0,2,0ZM55,55a1,1,0,1,1,1-1A1,1,0,0,1,55,55Z"></path><path d="M60,49.11V34a5,5,0,0,0-10,0V49.11a7,7,0,1,0,10,0ZM55,59a4.994,4.994,0,0,1-3.332-8.719A1,1,0,0,0,52,49.537V34a3,3,0,0,1,6,0V49.537a1,1,0,0,0,.332.744A4.994,4.994,0,0,1,55,59Z"></path><path d="M6,38H4a2.259,2.259,0,0,1-.76,1.683,4.212,4.212,0,0,0,0,5.969,2.243,2.243,0,0,1,0,3.365A4.164,4.164,0,0,0,2,52H4a2.258,2.258,0,0,1,.759-1.681,4.208,4.208,0,0,0,0-5.968,2.244,2.244,0,0,1,0-3.366A4.171,4.171,0,0,0,6,38Z"></path><path d="M9.759,35.351a2.244,2.244,0,0,1,0-3.366A4.171,4.171,0,0,0,11,29H9a2.259,2.259,0,0,1-.76,1.683,4.212,4.212,0,0,0,0,5.969,2.243,2.243,0,0,1,0,3.365A4.164,4.164,0,0,0,7,43H9a2.258,2.258,0,0,1,.759-1.681,4.208,4.208,0,0,0,0-5.968Z"></path></g></symbol><symbol id="recovered" xmlns="http://www.w3.org/2000/svg" data-name="Layer 1" viewBox="0 0 512 512"><title>recovered heart patient </title><path d="M401.57,299.93c19.63,0,29.33,18.69,29.33,34.89,0,41.49-58.67,79.72-58.67,79.72s-58.68-37.97-58.68-79.72c0-16.19,7.91-34.91,29.34-34.91a29.347,29.347,0,0,1,29.34,29.35A29.324,29.324,0,0,1,401.57,299.93Z" style="fill:#f8ec7d"></path><path d="M367.38,468A110.941,110.941,0,0,1,264.49,330.96a109.473,109.473,0,0,1,5.59-16.94A110.894,110.894,0,1,1,372.23,468.11C370.6,468.11,368.99,468.08,367.38,468ZM430.9,334.82c0-16.2-9.7-34.89-29.33-34.89a29.324,29.324,0,0,0-29.34,29.33,29.347,29.347,0,0,0-29.34-29.35c-21.43,0-29.34,18.72-29.34,34.91,0,41.75,58.68,79.72,58.68,79.72S430.9,376.31,430.9,334.82Z" style="fill:#6fe3ff"></path><path d="M367.38,468H48.09c-10.13,0-25.2-13.19-25.2-23.32v-43.2c0-61.06,75.35-74.65,123.75-88.89l.01.03c0,17.07,20.26,52.5,60.76,52.5,28.42,0,48.59-18.1,57.07-34.16h.01A110.941,110.941,0,0,0,367.38,468Z" style="fill:#f8ec7d"></path><path d="M293.02,119.79c0,2.13-.41,9.42-1.1,17.96,0-29.48-33.88-48.09-33.88-48.09s-8.09,30.83-66.97,57.46c-61.01,27.59-74.01-15.62-74.63-17.82a.659.659,0,0,0-.02-.09c-.53-2.62-.91-4.64-1.07-5.74-2.59-17.68,10.41-79.02,90.49-79.02C280.79,44.45,293.02,100.17,293.02,119.79Z" style="fill:#af593c"></path><path d="M270.08,314.02a109.473,109.473,0,0,0-5.59,16.94h-.01c-8.48,16.06-28.65,34.16-57.07,34.16-40.5,0-60.76-35.43-60.76-52.5l-.01-.03q4.575-1.35,8.79-2.71l12.18-26.25,1.58-1.65c9.48,5.99,21.91,9.96,38.22,9.96,16.28,0,28.69-3.86,38.17-9.69l.07.12,12.39,27.87C261.88,311.54,265.91,312.78,270.08,314.02Z" style="fill:#e48e66"></path><path d="M286.78,172.64c10.84-12.34,25.35-1.38,21.33,15.67-5.04,21.35-18.77,38.27-32.05,38.02-.05,0-.87,37.6-30.41,55.88-.02.01-.05.03-.07.04-9.48,5.83-21.89,9.69-38.17,9.69-16.31,0-28.74-3.97-38.22-9.96-29.06-18.35-30.38-55.65-30.44-55.65-13.27.25-27.01-16.67-32.05-38.02-4.03-17.05,10.49-27.09,21.33-15.68-2.73-3.59-8.98-30.51-11.59-43.33.62,2.2,13.62,45.41,74.63,17.82,58.88-26.63,66.97-57.46,66.97-57.46s33.88,18.61,33.88,48.09C290.78,152.08,288.85,169.92,286.78,172.64Z" style="fill:#e48e66"></path><path d="M401.57,292.93a36.317,36.317,0,0,0-29.336,14.91,36.31,36.31,0,0,0-29.344-14.93c-12.076,0-21.916,4.977-28.455,14.391-5.085,7.32-7.885,17.094-7.885,27.519,0,45.04,59.351,83.962,61.877,85.6a7,7,0,0,0,7.625-.012c2.525-1.646,61.848-40.816,61.848-85.585C437.9,314.513,425.167,292.93,401.57,292.93ZM372.218,406.019c-12.545-9-51.668-39.615-51.668-71.2,0-4.661,1.077-27.91,22.34-27.91a22.37,22.37,0,0,1,22.34,22.35,7,7,0,0,0,14,0,22.36,22.36,0,0,1,22.34-22.33c16.267,0,22.33,17.107,22.33,27.89C423.9,366.205,384.759,396.969,372.218,406.019Z" style="fill:#63316d"></path><path d="M372.23,239.34a117.7,117.7,0,0,0-105.96,66.208c-1.088-.339-2.113-.664-3.091-.981l-8.829-19.86C275.182,268.9,280.922,244.384,282.5,232.5c14.183-3.831,27.213-20.5,32.427-42.583,2.812-11.927-1.3-23.034-10.224-27.639a16.833,16.833,0,0,0-8.033-1.944c.716-5.312,1.468-12.427,2.231-22.019.64-7.923,1.123-15.887,1.123-18.524,0-13.037-4.441-32.824-16.907-49.258C262.373,43.19,229.645,37.45,205.84,37.45c-23.415,0-55.953,5.354-77.991,30.857-17.35,20.076-21.122,44.6-19.427,56.168.175,1.2.546,3.2,1.137,6.123.011.054.023.108.035.163.559,2.742,3.651,17.711,7.012,30.025a17.669,17.669,0,0,0-6.947,2.1c-8.571,4.636-12.5,15.5-9.771,27.029,5.223,22.128,18.29,38.812,32.5,42.6,1.681,11.544,7.5,35.519,27.393,51.34l-9.41,20.283c-1.807.564-3.7,1.137-5.711,1.731-5.078,1.494-10.364,2.971-16.018,4.534C81.084,323.558,16,341.567,16,401.48v43.2C16,459.319,34.789,475,48.09,475H367.238c1.55.074,3.184.11,4.992.11a117.885,117.885,0,0,0,0-235.77ZM138.442,77.46c14.914-17.259,37.59-26.01,67.4-26.01,30.011,0,52.257,9.267,66.119,27.543a69.034,69.034,0,0,1,11.02,21.863A93.045,93.045,0,0,0,261.41,83.524a6.949,6.949,0,0,0-10.119,4.281c-.081.28-8.7,28.333-63.106,52.937-20.306,9.182-36.682,11.008-48.674,5.425-11.891-5.535-15.768-16.919-16.276-18.574-.659-3.27-.883-4.619-.959-5.138C119.788,105.472,132.093,84.807,138.442,77.46Zm7.309,148.433a7.129,7.129,0,0,0-7-6.893h-.132c-8.4,1-20.451-12.751-25.1-32.466-1.437-6.078.448-10.138,2.807-11.415,2.682-1.449,5.534,1.132,6.635,2.291a6.989,6.989,0,0,0,10.807-8.808c-.746-1.4-2.087-5.733-3.652-11.576,1.109.644,2.269,1.26,3.492,1.83a49.808,49.808,0,0,0,21.259,4.454c11.563,0,24.635-3.275,39.094-9.813C237.068,134,254.419,111.871,261.038,100c8.842,6.481,23.754,20,23.876,37.531-1.659,20.721-3.344,29.452-4.066,31.387a7,7,0,0,0,11.191,8.338c1.3-1.481,3.839-3.78,6.242-2.54,2.588,1.335,4.455,5.88,3.016,11.981-4.626,19.6-16.594,32.632-24.955,32.632l-.15,0a7.022,7.022,0,0,0-7.133,6.8c-.31,5.755-3.062,35.181-27,50.066l-.146.087c-9.336,5.742-20.945,8.653-34.5,8.653s-25.157-3.069-34.483-8.961C149.351,261.091,146.152,231.63,145.751,225.893Zm16.029,86.933,9.949-21.443c10.295,5.014,22.26,7.557,35.681,7.557,13.054,0,24.733-2.349,34.837-6.992l9.4,21.136a7,7,0,0,0,4.151,3.787c1.59.538,3.259,1.082,5.082,1.657-1.12,3.229-2.1,6.5-2.927,9.782-7.6,13.9-25.221,29.81-50.54,29.81-33.024,0-49.75-25.932-53.11-40.539,1.12-.349,2.219-.7,3.287-1.042A7,7,0,0,0,161.78,312.826ZM30,444.68v-43.2c0-21.889,10.316-38.326,32.582-51.725,20.153-12.128,46.5-19.42,69.768-25.853,2.918-.806,5.737-1.59,8.5-2.368,5.245,21.3,27.872,50.586,66.562,50.586A70.876,70.876,0,0,0,254.4,354.436c-.022.931-.043,1.862-.043,2.794A118.13,118.13,0,0,0,316.216,461H48.09C41.457,461,30,450.628,30,444.68ZM372.23,461h-4.675a106.244,106.244,0,1,1,4.675,0Z" style="fill:#63316d"></path></symbol><symbol id="skull" enable-background="new 0 0 512.418 512.418" viewBox="0 0 512.418 512.418" xmlns="http://www.w3.org/2000/svg"><g><g fill="#98a1b3"><path d="m405.51 144.302 32.676-32.676c14.699 14.699 38.531 14.699 53.231 0 14.699-14.699 14.699-38.531 0-53.231-7.232-7.232-16.675-10.898-26.154-11.013-.115-9.478-3.781-18.921-11.013-26.153-14.699-14.699-38.531-14.699-53.231 0-14.699 14.699-14.699 38.531 0 53.231l-26.638 26.638z"></path><path d="m106.908 144.302-32.676-32.676c-14.699 14.699-38.531 14.699-53.231 0s-14.699-38.531 0-53.231c7.232-7.232 16.675-10.898 26.154-11.013.115-9.478 3.781-18.921 11.013-26.153 14.699-14.699 38.531-14.699 53.231 0s14.699 38.531 0 53.231l26.638 26.638z"></path><path d="m403.019 365.626 35.167 35.167c14.699-14.699 38.531-14.699 53.231 0 14.699 14.699 14.699 38.531 0 53.231-7.232 7.232-16.675 10.898-26.154 11.013-.115 9.478-3.781 18.921-11.013 26.153-14.699 14.699-38.531 14.699-53.231 0-14.699-14.699-14.699-38.531 0-53.231l-61.874-61.874z"></path><path d="m109.068 365.956-34.836 34.836c-14.699-14.699-38.531-14.699-53.231 0s-14.699 38.531 0 53.231c7.232 7.232 16.675 10.898 26.154 11.013.115 9.478 3.781 18.921 11.013 26.153 14.699 14.699 38.531 14.699 53.231 0s14.699-38.531 0-53.231l104.399-104.399z"></path></g><g><g><g><path d="m419.704 267.832c23.492-104.279-55.793-203.628-162.883-203.628h-.612c-107.327 0-186.734 99.788-162.733 204.32-8.205 11.023-13.064 24.685-13.064 39.483 0 36.557 29.636 66.193 66.193 66.193h11.238v49.336c0 13.624 11.044 24.668 24.668 24.668s24.668-11.044 24.668-24.668c0 13.624 11.044 24.668 24.668 24.668s24.668-11.044 24.668-24.668c0 13.624 11.044 24.668 24.668 24.668s24.668-11.044 24.668-24.668c0 13.624 11.044 24.668 24.668 24.668s24.668-11.044 24.668-24.668v-49.336h11.923c36.557 0 66.193-29.635 66.193-66.193 0-15.112-5.075-29.033-13.599-40.175z" fill="#e1e3e9"></path></g><g fill="#98a1b3"><g><path d="m335.249 296.358h-17.525c-21.178 0-38.345-17.168-38.345-38.345 0-21.178 17.168-38.345 38.345-38.345h17.525c21.178 0 38.345 17.168 38.345 38.345 0 21.178-17.168 38.345-38.345 38.345z"></path><path d="m195.306 296.358h-17.525c-21.178 0-38.345-17.168-38.345-38.345 0-21.178 17.168-38.345 38.345-38.345h17.525c21.178 0 38.345 17.168 38.345 38.345 0 21.178-17.168 38.345-38.345 38.345z"></path></g><path d="m265.443 373.789h-17.856c-9.293 0-16.149-8.677-14-17.718l3.71-15.61c2.116-8.902 10.068-15.186 19.218-15.186 9.15 0 17.103 6.284 19.218 15.186l3.71 15.61c2.149 9.041-4.707 17.718-14 17.718z"></path></g></g></g><g><path d="m317.725 306.359h17.524c26.657 0 48.345-21.688 48.345-48.346s-21.688-48.346-48.345-48.346h-17.524c-26.658 0-48.346 21.688-48.346 48.346s21.688 48.346 48.346 48.346zm0-76.692h17.524c15.629 0 28.345 12.716 28.345 28.346s-12.716 28.346-28.345 28.346h-17.524c-15.63 0-28.346-12.716-28.346-28.346s12.716-28.346 28.346-28.346z"></path><path d="m177.781 209.667c-26.658 0-48.346 21.688-48.346 48.346s21.688 48.346 48.346 48.346h17.524c26.658 0 48.346-21.688 48.346-48.346s-21.688-48.346-48.346-48.346zm45.87 48.346c0 15.63-12.716 28.346-28.346 28.346h-17.524c-15.63 0-28.346-12.716-28.346-28.346s12.716-28.346 28.346-28.346h17.524c15.631 0 28.346 12.716 28.346 28.346z"></path><path d="m256.515 315.275c-13.844 0-25.747 9.406-28.946 22.874l-3.71 15.609c-1.736 7.304-.063 14.872 4.592 20.763 4.654 5.891 11.629 9.269 19.137 9.269h17.856c7.507 0 14.481-3.378 19.136-9.268 4.655-5.891 6.329-13.458 4.593-20.764l-3.71-15.609c-3.202-13.468-15.105-22.874-28.948-22.874zm12.373 46.846c-.492.623-1.595 1.668-3.444 1.668h-17.856c-1.851 0-2.952-1.045-3.444-1.668-.493-.623-1.255-1.938-.827-3.738l3.711-15.61c1.049-4.415 4.95-7.498 9.488-7.498s8.44 3.084 9.49 7.499l3.709 15.608c.428 1.802-.335 3.116-.827 3.739z"></path><path d="m438.932 387.397-21.901-21.902c16.078-13.98 26.272-34.56 26.272-57.488 0-15.288-4.445-29.854-12.901-42.416 7.891-39.631 2.124-80.115-16.348-115.69l24.872-24.872c7.639 4.961 16.553 7.621 25.876 7.621 12.726 0 24.689-4.955 33.688-13.953 18.573-18.575 18.573-48.799-.001-67.372-6.694-6.696-15.064-11.161-24.169-12.998-1.838-9.104-6.302-17.474-12.997-24.17-8.998-8.998-20.962-13.953-33.687-13.953-12.726 0-24.689 4.955-33.687 13.953s-13.953 20.962-13.953 33.687c0 9.323 2.66 18.237 7.621 25.876l-19.645 19.645c-18.656-15.104-40.301-26.323-63.855-32.813-5.319-1.467-10.83 1.659-12.297 6.984-1.467 5.324 1.66 10.83 6.984 12.297 80.781 22.258 129.603 103.871 111.145 185.802-.65 2.89.014 5.921 1.813 8.273 7.55 9.868 11.541 21.659 11.541 34.099 0 30.985-25.208 56.193-56.192 56.193h-11.923c-5.522 0-10 4.478-10 10v49.336c0 8.088-6.58 14.668-14.668 14.668s-14.668-6.58-14.668-14.668c0-5.522-4.478-10-10-10s-10 4.478-10 10c0 8.088-6.58 14.668-14.669 14.668-8.088 0-14.668-6.58-14.668-14.668 0-5.522-4.478-10-10-10s-10 4.478-10 10c0 8.088-6.58 14.668-14.668 14.668s-14.668-6.58-14.668-14.668c0-5.522-4.478-10-10-10s-10 4.478-10 10c0 8.088-6.58 14.668-14.668 14.668s-14.668-6.58-14.668-14.668v-49.336c0-5.522-4.478-10-10-10h-11.238c-30.984 0-56.192-25.208-56.192-56.193 0-12.182 3.833-23.77 11.086-33.511 1.75-2.352 2.381-5.353 1.725-8.21-18.954-82.546 30.078-164.52 111.626-186.623 5.33-1.444 8.48-6.937 7.035-12.268-1.444-5.33-6.932-8.48-12.268-7.035-23.976 6.498-45.984 17.881-64.901 33.273l-19.914-19.913c4.961-7.639 7.621-16.553 7.621-25.876 0-12.725-4.955-24.688-13.953-33.687-8.997-8.998-20.961-13.953-33.687-13.953-12.725 0-24.688 4.955-33.687 13.954-6.695 6.695-11.16 15.065-12.997 24.169-9.104 1.837-17.475 6.302-24.169 12.997-18.574 18.574-18.574 48.798-.001 67.373 16.15 16.149 41.105 18.258 59.557 6.324l25.281 25.282c-18.439 35.726-24.082 76.337-15.986 116.077-8.107 12.381-12.369 26.677-12.369 41.627 0 22.599 9.899 42.92 25.577 56.886l-22.503 22.504c-18.451-11.932-43.408-9.824-59.557 6.324-18.573 18.575-18.573 48.799.001 67.372 6.694 6.695 15.064 11.161 24.169 12.998 1.838 9.104 6.302 17.474 12.997 24.17 8.998 8.998 20.962 13.953 33.687 13.953 12.726 0 24.689-4.955 33.687-13.953 16.149-16.15 18.257-41.106 6.324-59.556l23.049-23.048v7.879c0 19.116 15.552 34.668 34.668 34.668 9.642 0 18.378-3.957 24.668-10.332 6.29 6.375 15.026 10.332 24.668 10.332s18.378-3.957 24.668-10.332c6.29 6.375 15.026 10.332 24.668 10.332 9.643 0 18.379-3.957 24.669-10.332 6.29 6.375 15.026 10.332 24.668 10.332 19.116 0 34.668-15.552 34.668-34.668v-7.267l22.437 22.436c-11.933 18.449-9.825 43.405 6.324 59.556 8.997 8.998 20.961 13.953 33.687 13.953 12.725 0 24.688-4.955 33.687-13.954 6.695-6.695 11.159-15.065 12.997-24.169 9.104-1.837 17.475-6.302 24.169-12.997 18.574-18.574 18.574-48.798.001-67.373-16.152-16.149-41.107-18.256-59.558-6.324zm-30.841-305.867c3.905-3.905 3.905-10.237 0-14.143-5.221-5.221-8.096-12.161-8.096-19.544s2.875-14.324 8.096-19.544c5.22-5.221 12.161-8.096 19.544-8.096s14.323 2.875 19.544 8.095c5.125 5.126 7.996 11.946 8.085 19.204.065 5.428 4.449 9.812 9.876 9.878 7.261.089 14.081 2.961 19.205 8.086 10.776 10.776 10.777 28.312.001 39.088-10.777 10.778-28.312 10.776-39.089 0-3.906-3.904-10.236-3.904-14.143 0l-27.612 27.612c-6.168-9.139-13.105-17.608-20.707-25.341zm-340.93 23.025c-5.22 5.221-12.161 8.096-19.544 8.096-7.384 0-14.324-2.875-19.545-8.096-10.776-10.776-10.775-28.312.001-39.089 5.124-5.124 11.944-7.996 19.205-8.085 5.427-.066 9.811-4.45 9.876-9.878.089-7.258 2.96-14.078 8.085-19.203 5.221-5.221 12.161-8.096 19.544-8.096s14.324 2.875 19.544 8.096c10.777 10.776 10.777 28.312 0 39.088-3.905 3.905-3.905 10.237 0 14.143l25.602 25.602c-7.582 7.752-14.498 16.241-20.647 25.401l-27.978-27.978c-3.906-3.905-10.236-3.905-14.143-.001zm37.166 326.333c-3.905 3.905-3.905 10.237 0 14.143 5.221 5.221 8.096 12.161 8.096 19.544s-2.875 14.323-8.096 19.544c-5.22 5.221-12.161 8.096-19.544 8.096s-14.323-2.875-19.544-8.095c-5.125-5.126-7.996-11.946-8.085-19.204-.065-5.428-4.449-9.812-9.876-9.878-7.261-.089-14.081-2.961-19.205-8.086-10.776-10.776-10.777-28.312-.001-39.088 5.221-5.221 12.161-8.096 19.545-8.096 7.383 0 14.323 2.875 19.544 8.096 3.906 3.904 10.236 3.904 14.143 0l31.564-31.564c10.177 5.048 21.627 7.901 33.737 7.901h1.238v3.172zm380.018 16.064c-5.124 5.124-11.944 7.996-19.205 8.085-5.427.066-9.811 4.45-9.876 9.878-.089 7.258-2.96 14.078-8.085 19.203-5.221 5.221-12.161 8.096-19.544 8.096s-14.324-2.875-19.544-8.096c-5.221-5.221-8.096-12.161-8.096-19.544s2.875-14.323 8.096-19.544c3.905-3.905 3.905-10.237 0-14.143l-42.903-42.903v-3.784h1.923c11.766 0 22.916-2.684 32.874-7.467l31.13 31.13c3.906 3.904 10.236 3.904 14.143 0 10.776-10.777 28.313-10.776 39.089 0s10.774 28.312-.002 39.089z"></path><path d="m256.859 74.209c2.631 0 5.21-1.07 7.07-2.94 1.86-1.859 2.93-4.43 2.93-7.069 0-2.631-1.069-5.2-2.93-7.061-1.86-1.87-4.439-2.939-7.07-2.939-2.63 0-5.21 1.069-7.069 2.939-1.86 1.86-2.931 4.43-2.931 7.061 0 2.64 1.07 5.21 2.931 7.069 1.859 1.87 4.439 2.94 7.069 2.94z"></path></g></g></symbol><symbol id="worldwide" enable-background="new 0 0 512 512" viewBox="0 0 512 512" xmlns="http://www.w3.org/2000/svg"><g><g><path d="m71.128 105.401c-33.978 39.835-54.479 91.494-54.479 147.942 0 125.986 102.131 228.117 228.117 228.117 4.156 0 8.292-.109 12.398-.336l50.731-50.731v-104.9l-85.77-38.259v-152.373z" fill="#78cbec"></path><path d="m450.284 352.427c14.476-29.96 22.589-63.582 22.589-99.083 0-55.854-20.086-107.029-53.42-146.686l-197.329 28.203v152.375l85.77 38.259z" fill="#78cbec"></path><path d="m76.633 256.436c0-52.447 16.887-101.064 45.66-141.053l-51.165-9.982c-33.978 39.835-54.479 91.494-54.479 147.942 0 119.107 91.287 216.875 207.712 227.199-87.225-39.201-147.728-124.8-147.728-224.106z" fill="#34b5e1"></path><path d="m450.284 352.427c-35.175 72.853-107.949 124.136-193.121 128.698l-5.927-14.387c-3.8-9.225-.707-19.823 7.371-25.587 5.65-4.007 8.994-10.508 8.994-17.434-.476-4.135 2.045-13.562-5.788-21.916l-11.171-11.913c-6.857-7.312-7.718-18.414-2.068-26.695l2.998-4.393c8.024-11.774 2.523-27.952-11.003-32.395l-32.434-10.646c-2.978-.98-5.482-3.008-7.055-5.719l-22.243-38.262c-4.838-8.341-16.831-8.499-21.896-.287l-5.323 8.628c-2.355 3.809-6.481 6.065-10.854 6.065-8.384 0-14.466-7.917-12.368-15.989l11.517-44.09c.91-3.513 3.285-6.471 6.511-8.133l23.47-12.081c5.29-2.712 7.859-8.629 6.619-14.119-2.177-9.805-10.073-17.315-19.967-19.007-11.982-2.502-19.656-1.964-29.258-7.797l-34.057-20.67c-8.42-5.115-14.624-13.199-17.375-22.658l-4.73-16.237v-.01c41.844-49.057 104.1-80.165 173.638-80.165 70.122 0 132.853 31.643 174.687 81.432l-9.271 16.484c-3.524 6.297-10.078 10.674-17.622 11.28-7.54.604-14.258 4.997-17.83 11.656l-8.49 15.821c-4.146 7.728-12.447 12.299-21.204 11.675-5.301-.354-6.3-.524-8.826-.524-11.527 0-22.579 4.819-30.435 13.377-15.5 16.923-8.049 34.884-20.808 51.837l-19.354 25.825c-4.502 6.016-3.216 14.555 2.869 18.968l16.771 12.16c3.255 2.355 7.391 3.137 11.29 2.127 22.914-5.712 24.393-6.936 30-6.936 6.887 0 13.585 2.731 18.542 7.767 14.061 14.288 29.399 3.043 43.961 10.805 12.893 6.952 14.185 7.24 17.058 9.469z" fill="#b0ebce"></path><path d="m157.258 390.834c-8.482-3.75-12.523-13.501-9.179-22.152l.014-.036c5.438-14.066-8.4-27.904-22.465-22.466l-.037.014c-8.65 3.344-18.402-.696-22.151-9.179-6.099-13.796-25.676-13.796-31.774 0-3.75 8.482-13.501 12.523-22.151 9.178l-.036-.014c-14.066-5.439-27.904 8.4-22.466 22.465l.014.037c3.344 8.65-.696 18.402-9.178 22.151-13.796 6.099-13.796 25.676 0 31.774 8.482 3.75 12.523 13.501 9.178 22.151l-.014.036c-5.438 14.066 8.4 27.904 22.465 22.466l.037-.014c8.65-3.344 18.402.696 22.151 9.178 6.099 13.796 25.676 13.796 31.774 0 3.75-8.482 13.501-12.523 22.151-9.178l.036.014c14.066 5.439 27.904-8.4 22.466-22.465l-.014-.037c-3.344-8.65.696-18.402 9.178-22.151 13.797-6.096 13.797-25.673.001-31.772z" fill="#ff748f"></path><path d="m392.295 101.234c6.355 2.809 9.383 10.116 6.877 16.597l-.01.027c-4.075 10.538 6.293 20.907 16.832 16.832l.027-.011c6.481-2.506 13.787.522 16.597 6.877 4.569 10.337 19.237 10.337 23.807 0 2.809-6.355 10.116-9.383 16.597-6.877l.027.011c10.539 4.075 20.907-6.293 16.832-16.832l-.011-.028c-2.506-6.481.522-13.787 6.877-16.597 10.337-4.569 10.337-19.237 0-23.807-6.355-2.809-9.383-10.116-6.877-16.597l.011-.027c4.075-10.539-6.294-20.907-16.832-16.832l-.028.011c-6.481 2.506-13.787-.522-16.597-6.877-4.569-10.337-19.237-10.337-23.807 0-2.809 6.355-10.116 9.383-16.597 6.877l-.027-.011c-10.539-4.075-20.907 6.293-16.832 16.832l.011.028c2.506 6.481-.522 13.787-6.877 16.597-10.337 4.57-10.337 19.238 0 23.807z" fill="#ff748f"></path><path d="m93.232 144.297 8.495 5.156c28.3-56.958 78.501-101.76 140.01-124.184-68.314.89-129.375 31.781-170.61 80.123v.01l4.73 16.237c2.751 9.458 8.955 17.542 17.375 22.658z" fill="#80dfb5"></path><g fill="#fd5f7e"><path d="m51.986 377.054c0-10.365 1.524-20.346 4.333-29.704-2.26.072-4.569-.291-6.805-1.155l-.036-.014c-14.065-5.438-27.904 8.4-22.466 22.466l.014.037c3.344 8.65-.696 18.402-9.178 22.151-13.796 6.099-13.796 25.676 0 31.774 8.482 3.75 12.523 13.501 9.178 22.151l-.014.036c-5.438 14.066 8.4 27.904 22.465 22.466l.037-.014c8.65-3.344 18.402.696 22.151 9.178 6.099 13.796 25.676 13.796 31.774 0 1.686-3.813 4.589-6.718 8.054-8.468-34.681-13.316-59.507-48.985-59.507-90.904z"></path><path d="m416.655 65.209c0-7.108.83-13.973 2.349-20.477-1.001-.133-2.001-.371-2.983-.751l-.027-.01c-10.539-4.075-20.907 6.293-16.832 16.832l.011.028c2.506 6.481-.522 13.787-6.877 16.597-10.337 4.569-10.337 19.237 0 23.807 6.355 2.81 9.383 10.116 6.877 16.597l-.01.027c-4.075 10.539 6.293 20.907 16.832 16.832l.028-.011c6.481-2.506 13.787.522 16.597 6.877 4.569 10.337 19.237 10.337 23.807 0 .95-2.149 2.422-3.906 4.194-5.209-25.335-8.525-43.966-37.136-43.966-71.139z"></path></g></g><g><path d="m165.187 128.544v-16.732c0-4.142-3.357-7.5-7.5-7.5-4.142 0-7.5 3.358-7.5 7.5v16.732c0 4.142 3.358 7.5 7.5 7.5 4.143 0 7.5-3.358 7.5-7.5z"></path><path d="m339.335 128.544v-16.732c0-4.142-3.358-7.5-7.5-7.5s-7.5 3.358-7.5 7.5v16.732c0 4.142 3.358 7.5 7.5 7.5s7.5-3.358 7.5-7.5z"></path><path d="m227.459 143.432c4.368-5.012 10.673-7.886 17.3-7.886 6.63 0 12.937 2.874 17.305 7.886 2.722 3.122 7.46 3.448 10.582.727 3.123-2.722 3.448-7.459.727-10.582-7.217-8.281-17.646-13.03-28.613-13.031-.001 0 0 0 0 0-10.963 0-21.391 4.75-28.608 13.031-2.722 3.123-2.396 7.86.727 10.582 3.121 2.72 7.859 2.395 10.58-.727z"></path><path d="m499.778 70.568c-2.698-1.193-3.978-4.282-2.904-7.06 6.423-16.613-9.908-32.96-26.559-26.521-2.75 1.062-5.84-.216-7.032-2.914-7.205-16.301-30.325-16.291-37.526 0-1.192 2.698-4.282 3.978-7.06 2.903-16.611-6.424-32.961 9.904-26.522 26.559.725 1.876.341 3.895-.819 5.376-41.535-33.045-93.367-51.185-146.591-51.185-43.218 0-85.485 11.809-122.232 34.151-3.54 2.152-4.664 6.766-2.512 10.305 2.152 3.54 6.765 4.664 10.305 2.512 34.398-20.914 73.971-31.968 114.44-31.968 48.904 0 96.555 16.354 135.067 46.202-5.943 10.158-2.23 24.012 9.43 29.165 2.606 1.152 4.009 4.199 2.903 7.06-1.513 3.914-1.789 8.01-.932 11.859-4.629.482-9.282 2.089-13.335 4.775-8.086 5.353-10.19 11.549-18.267 26.565-2.744 5.115-8.264 8.153-14.095 7.738-5.298-.354-6.436-.541-9.325-.541-14.384 0-28.3 6.41-37.694 17.798-14.885 18.037-8.856 36.207-19.551 50.419l-19.356 25.828c-7.015 9.374-5.013 22.654 4.472 29.533l16.778 12.165c5.072 3.67 11.502 4.882 17.499 3.328 21.478-5.354 23.932-6.713 28.186-6.713 5.001 0 9.688 1.963 13.197 5.528 16.491 16.753 34.145 5.964 45.747 12.145 24.287 13.094 3.643.008 55.322 39.02-13.845 26.72-33.382 50.772-56.783 69.843-3.211 2.617-3.693 7.341-1.076 10.552 2.626 3.221 7.35 3.684 10.552 1.076 53.858-43.894 86.87-110.095 86.87-182.729 0-35.487-7.669-69.488-22.797-101.182 2.401-1.988 4.369-4.544 5.708-7.572 1.193-2.698 4.281-3.976 7.06-2.904 16.612 6.421 32.962-9.903 26.522-26.559-1.063-2.751.216-5.84 2.914-7.032 16.297-7.205 16.287-30.324-.004-37.525zm-52.39 270.169c-42.303-32.136-35.241-28.066-45.065-33.205-10.222-5.348-9.438-5.092-11.544-6.049-16.489-7.48-29.502 2.451-40.348-8.57-6.259-6.359-14.966-10.006-23.887-10.006-6.842 0-8.557 1.361-31.879 7.175-1.117.29-2.326.274-3.558-.178-1.316-.481.184.358-18.22-12.921-2.689-1.95-3.269-5.729-1.271-8.398l19.344-25.812c13.976-18.57 6.896-36.596 20.341-51.275 6.387-6.958 15.467-10.949 24.91-10.949 2.181 0 3.091.158 8.293.505 11.687.83 22.811-5.295 28.345-15.61l8.489-15.822c2.38-4.435 6.798-7.323 11.821-7.725 2.637-.211 5.412-.835 7.715-1.668 5.536 3.31 12.069 3.68 17.851 1.445 2.75-1.062 5.84.216 7.032 2.914 3.193 7.224 9.964 11.757 17.401 12.199 14.744 30.186 22.214 62.642 22.214 96.555 0 30.462-6.046 59.817-17.984 87.395zm46.326-246.363c-10.035 4.436-14.797 15.927-10.829 26.188 1.734 4.485-2.656 8.86-7.159 7.122-10.233-3.958-21.724.804-26.161 10.839-1.24 2.805-4.054 3.674-6.389 3.128-3.003-.701-3.554-3.018-4.523-4.773-5.032-9.105-15.885-12.791-25.267-9.216-4.662 1.793-8.931-2.684-7.218-7.127 3.854-9.967-.594-21.632-10.84-26.161-4.383-1.936-4.379-8.152 0-10.087 10.036-4.436 14.797-15.927 10.83-26.188-1.717-4.44 2.613-8.879 7.159-7.122 10.236 3.958 21.725-.804 26.161-10.84 1.929-4.363 8.136-4.414 10.088 0 4.436 10.035 15.927 14.798 26.189 10.829 4.452-1.72 8.876 2.622 7.121 7.16-3.957 10.233.805 21.725 10.84 26.161 4.362 1.929 4.411 8.136-.002 10.087z"></path><path d="m20.019 442.089c-7.785 20.133 11.999 39.96 32.202 32.151 4.923-1.904 10.453.387 12.587 5.216 8.736 19.762 36.763 19.75 45.493 0 2.134-4.828 7.663-7.118 12.623-5.201 9.245 3.575 19.331 1.479 26.388-5.455 35.226 15.65 72.325 21.796 108.226 19.812.009 0 .019 0 .028-.001 39.291-2.104 77.712-14.152 111.109-34.843 3.521-2.181 4.607-6.804 2.426-10.325-2.182-3.521-6.804-4.607-10.325-2.426-29.764 18.439-63.79 29.546-98.728 32.268l-3.875-9.407c-2.476-6.008-.504-12.845 4.776-16.612 7.611-5.398 12.155-14.203 12.155-23.552 0-1.362-.129.073-.028-3.101.299-9.399-1.173-16.889-7.789-23.945-10.387-11.577-13.154-12.598-14.497-18.062-2.021-8.209 3.741-13.111 4.982-15.585 10.835-15.898 3.435-37.734-14.861-43.744l-32.43-10.645c-1.229-.404-2.263-1.242-2.914-2.364-23.88-40.962-22.301-38.618-23.721-40.469-8.507-11.097-25.773-10.425-33.285 1.752l-5.32 8.623c-.971 1.57-2.644 2.508-4.475 2.508-3.504 0-5.966-3.306-5.111-6.594l11.52-44.103c.374-1.441 1.353-2.662 2.684-3.347 23.428-12.273 24.396-12.055 27.656-14.941 8.477-7.506 8.457-18.669 2.893-28.497-4.657-8.229-12.785-14.109-22.454-15.806-12.078-2.507-18.713-1.944-26.772-6.84l-34.054-20.667c-6.84-4.156-11.836-10.67-14.068-18.347l-3.587-12.316c8.397-9.486 17.673-18.307 27.618-26.262 3.234-2.587 3.76-7.307 1.172-10.541-2.586-3.235-7.307-3.759-10.541-1.172-56.447 45.147-88.572 112.964-88.572 184.093 0 31.27 6.013 61.565 17.877 90.154-8.142 7.032-10.85 17.921-6.995 27.889 1.904 4.924-.387 10.453-5.216 12.587-19.762 8.736-19.75 36.763 0 45.494 4.83 2.134 7.121 7.663 5.203 12.623zm4.131-188.747c0-47.676 15.47-94.012 43.819-131.971.473.97 3.434 18.438 21.373 29.337l34.054 20.668c7.688 4.67 14.11 5.875 22.784 7.201 8.065 1.232 7.672 1.337 9.103 1.579 6.896 1.18 12.38 6.349 13.916 13.266.516 2.287-.634 4.721-2.736 5.799-23.701 12.36-24.142 12.049-27.046 14.432-2.193 1.799-3.985 4.039-5.257 6.567-1.677 3.335-.731 1.623-13.021 48.087-1.591 6.12-.283 12.501 3.587 17.506 8.622 11.15 25.791 10.354 33.277-1.757l5.323-8.628c1.609-2.608 4.899-3.179 7.256-1.731 2.082 1.278.976.968 24.014 40.106 2.495 4.301 6.473 7.525 11.203 9.081l32.433 10.646c4.186 1.375 7.402 4.559 8.821 8.734 2.901 8.547-3.045 13.736-4.672 16.702-7.607 11.149-6.626 26.009 2.792 36.052l11.17 11.913c5.338 5.693 3.34 11.883 3.756 17.1-.102 4.556-2.503 8.643-5.847 11.015-11.075 7.903-15.064 22.137-9.949 34.549l1.797 4.362c-31.337.172-61.438-6.025-89.702-18.416.838-4.614.332-9.075-1.322-13.486-1.904-4.924.388-10.453 5.216-12.587 19.854-8.777 19.687-36.791 0-45.494-4.767-2.107-7.139-7.614-5.202-12.622 3.569-9.229 1.523-19.407-5.61-26.554 0 0 0 0-.001 0-7.055-7.056-17.23-9.216-26.591-5.596-4.92 1.902-10.451-.385-12.587-5.216-8.736-19.762-36.763-19.751-45.493 0-2.135 4.828-7.664 7.119-12.623 5.202-.714-.191-5.054-2.191-11.372-1.597-11.061-26.718-16.663-55.025-16.663-84.249zm-3.268 144.35c12.166-5.378 17.938-19.309 13.127-31.752-2.664-6.889 2.824-13.939 9.807-13.426 2.56.178 3.131 1.01 6.748 1.795 11.35 2.455 23.121-3.311 27.962-14.262 3.477-7.865 14.58-7.86 18.055 0 5.383 12.178 19.324 17.932 31.752 13.127 8.029-3.106 15.869 4.738 12.751 12.802-5.983 15.475 5.413 26.477 5.291 26.246 2.175 2.251 4.813 4.127 7.85 5.47 7.861 3.474 7.862 14.578-.001 18.055-10.294 4.551-16.282 15.418-14.506 26.622.91 5.728 3.823 8.166.835 13.456-2.365 4.168-7.271 6.352-12.258 4.425-12.406-4.797-26.338.975-31.716 13.142-3.476 7.862-14.579 7.861-18.056 0-4.095-9.264-13.148-14.821-22.729-14.821-3.001 0-6.055.546-9.022 1.693-7.999 3.094-15.877-4.719-12.751-12.802 4.797-12.407-.976-26.338-13.142-31.716-7.859-3.475-7.86-14.579.003-18.054z"></path></g></g></symbol></svg>